{
  "accessors": [
    {
      "bufferView": 2,
      "componentType": 5126,
      "count": 32,
      "max": [
        -37.94588851928711,
        -224.65989685058594,
        99.28463745117188
      ],
      "min": [
        -73.94589233398438,
        -224.65989685058594,
        17.284639358520508
      ],
      "type": "VEC3"
    },
    {
      "bufferView": 2,
      "byteOffset": 384,
      "componentType": 5126,
      "count": 32,
      "max": [
        0.0,
        1.0,
        0.0
      ],
      "min": [
        0.0,
        -1.0,
        0.0
      ],
      "type": "VEC3"
    },
    {
      "bufferView": 1,
      "componentType": 5126,
      "count": 32,
      "max": [
        1.0,
        0.996909499168396
      ],
      "min": [
        0.0,
        0.0
      ],
      "type": "VEC2"
    },
    {
      "bufferView": 0,
      "componentType": 5125,
      "count": 120,
      "type": "SCALAR"
    },
    {
      "bufferView": 2,
      "byteOffset": 768,
      "componentType": 5126,
      "count": 152,
      "max": [
        240.02969360351563,
        203.77760314941406,
        96.3125
      ],
      "min": [
        -226.72030639648438,
        -224.09739685058594,
        53.3125
      ],
      "type": "VEC3"
    },
    {
      "bufferView": 2,
      "byteOffset": 2592,
      "componentType": 5126,
      "count": 152,
      "max": [
        1.0,
        1.0,
        0.0
      ],
      "min": [
        -1.0,
        -1.0,
        0.0
      ],
      "type": "VEC3"
    },
    {
      "bufferView": 1,
      "byteOffset": 256,
      "componentType": 5126,
      "count": 152,
      "max": [
        0.4109843969345093,
        0.4501703977584839
      ],
      "min": [
        -0.20800000429153442,
        -3.3306690738754696e-16
      ],
      "type": "VEC2"
    },
    {
      "bufferView": 0,
      "byteOffset": 480,
      "componentType": 5125,
      "count": 228,
      "type": "SCALAR"
    },
    {
      "bufferView": 2,
      "byteOffset": 4416,
      "componentType": 5126,
      "count": 3062,
      "max": [
        26.457992553710938,
        -224.09739685058594,
        93.481689453125
      ],
      "min": [
        -136.34970092773438,
        -275.847412109375,
        14.4375
      ],
      "type": "VEC3"
    },
    {
      "bufferView": 2,
      "byteOffset": 41160,
      "componentType": 5126,
      "count": 3062,
      "max": [
        1.0,
        1.0,
        1.0
      ],
      "min": [
        -1.0,
        -1.0,
        -1.0
      ],
      "type": "VEC3"
    },
    {
      "bufferView": 1,
      "byteOffset": 1472,
      "componentType": 5126,
      "count": 3062,
      "max": [
        0.9283183217048645,
        1.7668989896774292
      ],
      "min": [
        -6.540626049041748,
        -1.5646029710769653
      ],
      "type": "VEC2"
    },
    {
      "bufferView": 0,
      "byteOffset": 1392,
      "componentType": 5125,
      "count": 5988,
      "type": "SCALAR"
    },
    {
      "bufferView": 2,
      "byteOffset": 77904,
      "componentType": 5126,
      "count": 248,
      "max": [
        241.09222412109375,
        -225.28489685058594,
        14.4375
      ],
      "min": [
        -137.47470092773438,
        -276.972412109375,
        -3.1875
      ],
      "type": "VEC3"
    },
    {
      "bufferView": 2,
      "byteOffset": 80880,
      "componentType": 5126,
      "count": 248,
      "max": [
        1.0,
        1.0,
        1.0
      ],
      "min": [
        -1.0,
        -1.0,
        -1.0
      ],
      "type": "VEC3"
    },
    {
      "bufferView": 3,
      "componentType": 5126,
      "count": 248,
      "max": [
        1.0,
        1.0,
        1.0,
        1.0
      ],
      "min": [
        -1.0,
        -1.0,
        -1.0,
        -1.0
      ],
      "type": "VEC4"
    },
    {
      "bufferView": 1,
      "byteOffset": 25968,
      "componentType": 5126,
      "count": 248,
      "max": [
        1.1474659442901611,
        2.2076539993286133
      ],
      "min": [
        -0.06568144261837006,
        -0.29775670170783997
      ],
      "type": "VEC2"
    },
    {
      "bufferView": 0,
      "byteOffset": 25344,
      "componentType": 5125,
      "count": 384,
      "type": "SCALAR"
    },
    {
      "bufferView": 2,
      "byteOffset": 83856,
      "componentType": 5126,
      "count": 40,
      "max": [
        401.2171936035156,
        285.215087890625,
        -1.375
      ],
      "min": [
        241.59219360351563,
        -464.472412109375,
        -3.1875
      ],
      "type": "VEC3"
    },
    {
      "bufferView": 2,
      "byteOffset": 84336,
      "componentType": 5126,
      "count": 40,
      "max": [
        1.0,
        1.0,
        1.0
      ],
      "min": [
        -1.0,
        -1.0,
        -1.0
      ],
      "type": "VEC3"
    },
    {
      "bufferView": 3,
      "byteOffset": 3968,
      "componentType": 5126,
      "count": 40,
      "max": [
        1.0,
        0.0,
        1.0,
        1.0
      ],
      "min": [
        0.0,
        -5.2890695566732565e-14,
        -1.0,
        -1.0
      ],
      "type": "VEC4"
    },
    {
      "bufferView": 1,
      "byteOffset": 27952,
      "componentType": 5126,
      "count": 40,
      "max": [
        0.4670639932155609,
        1.8530089855194092
      ],
      "min": [
        0.06453082710504532,
        -0.0044691660441458225
      ],
      "type": "VEC2"
    },
    {
      "bufferView": 0,
      "byteOffset": 26880,
      "componentType": 5125,
      "count": 60,
      "type": "SCALAR"
    },
    {
      "bufferView": 2,
      "byteOffset": 84816,
      "componentType": 5126,
      "count": 4620,
      "max": [
        253.34219360351563,
        231.7332000732422,
        240.88409423828125
      ],
      "min": [
        -240.03280639648438,
        -237.28489685058594,
        14.4375
      ],
      "type": "VEC3"
    },
    {
      "bufferView": 2,
      "byteOffset": 140256,
      "componentType": 5126,
      "count": 4620,
      "max": [
        1.0,
        1.0,
        1.0
      ],
      "min": [
        -1.0,
        -1.0,
        -1.0
      ],
      "type": "VEC3"
    },
    {
      "bufferView": 3,
      "byteOffset": 4608,
      "componentType": 5126,
      "count": 4620,
      "max": [
        1.0,
        1.0,
        1.0,
        1.0
      ],
      "min": [
        -1.0,
        -1.0,
        -1.0,
        -1.0
      ],
      "type": "VEC4"
    },
    {
      "bufferView": 1,
      "byteOffset": 28272,
      "componentType": 5126,
      "count": 4620,
      "max": [
        4.606856822967529,
        4.838414192199707
      ],
      "min": [
        -4.2996039390563965,
        -13.299249649047852
      ],
      "type": "VEC2"
    },
    {
      "bufferView": 0,
      "byteOffset": 27120,
      "componentType": 5125,
      "count": 7488,
      "type": "SCALAR"
    },
    {
      "bufferView": 2,
      "byteOffset": 195696,
      "componentType": 5126,
      "count": 80,
      "max": [
        241.34219360351563,
        205.09010314941406,
        14.4375
      ],
      "min": [
        -228.03280639648438,
        -276.972412109375,
        -3.1875
      ],
      "type": "VEC3"
    },
    {
      "bufferView": 2,
      "byteOffset": 196656,
      "componentType": 5126,
      "count": 80,
      "max": [
        1.0,
        1.0,
        3.1182890619390507e-16
      ],
      "min": [
        -1.0,
        -1.0,
        -3.1182890619390507e-16
      ],
      "type": "VEC3"
    },
    {
      "bufferView": 3,
      "byteOffset": 78528,
      "componentType": 5126,
      "count": 80,
      "max": [
        1.0,
        1.0,
        7.488667819188777e-08,
        1.0
      ],
      "min": [
        -1.0,
        -1.0,
        -1.9867112399651887e-08,
        -1.0
      ],
      "type": "VEC4"
    },
    {
      "bufferView": 1,
      "byteOffset": 65232,
      "componentType": 5126,
      "count": 80,
      "max": [
        12.258009910583496,
        0.2619234025478363
      ],
      "min": [
        -18.287689208984375,
        -0.020999999716877937
      ],
      "type": "VEC2"
    },
    {
      "bufferView": 0,
      "byteOffset": 57072,
      "componentType": 5125,
      "count": 144,
      "type": "SCALAR"
    },
    {
      "bufferView": 2,
      "byteOffset": 197616,
      "componentType": 5126,
      "count": 46,
      "max": [
        253.34219360351563,
        231.7332000732422,
        240.88409423828125
      ],
      "min": [
        -240.03280639648438,
        -237.28489685058594,
        111.94249725341797
      ],
      "type": "VEC3"
    },
    {
      "bufferView": 2,
      "byteOffset": 198168,
      "componentType": 5126,
      "count": 46,
      "max": [
        0.5533139109611511,
        0.5533139109611511,
        0.8329728245735168
      ],
      "min": [
        -0.5533139109611511,
        -0.5533139109611511,
        -0.8329728245735168
      ],
      "type": "VEC3"
    },
    {
      "bufferView": 3,
      "byteOffset": 79808,
      "componentType": 5126,
      "count": 46,
      "max": [
        1.0,
        1.0,
        2.4888586835913884e-07,
        1.0
      ],
      "min": [
        -1.0,
        -1.0,
        -5.989671336692481e-08,
        -1.0
      ],
      "type": "VEC4"
    },
    {
      "bufferView": 1,
      "byteOffset": 65872,
      "componentType": 5126,
      "count": 46,
      "max": [
        10.146530151367188,
        4.792494773864746
      ],
      "min": [
        -2.224616050720215,
        -1.0214050132485546e-14
      ],
      "type": "VEC2"
    },
    {
      "bufferView": 0,
      "byteOffset": 57648,
      "componentType": 5125,
      "count": 90,
      "type": "SCALAR"
    },
    {
      "bufferView": 2,
      "byteOffset": 198720,
      "componentType": 5126,
      "count": 15838,
      "max": [
        253.34225463867188,
        -130.22230529785156,
        110.1612548828125
      ],
      "min": [
        -240.03280639648438,
        -237.28489685058594,
        -0.029717769473791122
      ],
      "type": "VEC3"
    },
    {
      "bufferView": 2,
      "byteOffset": 388776,
      "componentType": 5126,
      "count": 15838,
      "max": [
        1.0,
        1.0,
        1.0
      ],
      "min": [
        -1.0,
        -1.0,
        -1.0
      ],
      "type": "VEC3"
    },
    {
      "bufferView": 1,
      "byteOffset": 66240,
      "componentType": 5126,
      "count": 15838,
      "max": [
        4.551842212677002,
        0.20006319880485535
      ],
      "min": [
        -0.03150000050663948,
        -4.84723426761452e-13
      ],
      "type": "VEC2"
    },
    {
      "bufferView": 0,
      "byteOffset": 58008,
      "componentType": 5125,
      "count": 46692,
      "type": "SCALAR"
    },
    {
      "bufferView": 2,
      "byteOffset": 578832,
      "componentType": 5126,
      "count": 190,
      "max": [
        423.9671936035156,
        361.965087890625,
        -1.375
      ],
      "min": [
        -350.3453063964844,
        -464.472412109375,
        -3.1875
      ],
      "type": "VEC3"
    },
    {
      "bufferView": 2,
      "byteOffset": 581112,
      "componentType": 5126,
      "count": 190,
      "max": [
        1.0,
        1.0,
        1.0
      ],
      "min": [
        -1.0,
        -1.0,
        -1.0
      ],
      "type": "VEC3"
    },
    {
      "bufferView": 3,
      "byteOffset": 80544,
      "componentType": 5126,
      "count": 190,
      "max": [
        1.0,
        1.0,
        1.0,
        1.0
      ],
      "min": [
        -0.00042128958739340305,
        -0.0002231784164905548,
        -1.0,
        -1.0
      ],
      "type": "VEC4"
    },
    {
      "bufferView": 1,
      "byteOffset": 192944,
      "componentType": 5126,
      "count": 190,
      "max": [
        5.089000225067139,
        6.494233131408691
      ],
      "min": [
        -0.01188443973660469,
        -1.2753239870071411
      ],
      "type": "VEC2"
    },
    {
      "bufferView": 0,
      "byteOffset": 244776,
      "componentType": 5125,
      "count": 330,
      "type": "SCALAR"
    },
    {
      "bufferView": 2,
      "byteOffset": 583392,
      "componentType": 5126,
      "count": 4,
      "max": [
        -134.59970092773438,
        -225.65989685058594,
        45.3125
      ],
      "min": [
        -136.34970092773438,
        -225.65989685058594,
        44.4375
      ],
      "type": "VEC3"
    },
    {
      "bufferView": 2,
      "byteOffset": 583440,
      "componentType": 5126,
      "count": 4,
      "max": [
        0.0,
        -1.0,
        0.0
      ],
      "min": [
        0.0,
        -1.0,
        0.0
      ],
      "type": "VEC3"
    },
    {
      "bufferView": 0,
      "byteOffset": 246096,
      "componentType": 5125,
      "count": 6,
      "type": "SCALAR"
    },
    {
      "bufferView": 2,
      "byteOffset": 583488,
      "componentType": 5126,
      "count": 4,
      "max": [
        -134.59970092773438,
        -225.65989685058594,
        45.3125
      ],
      "min": [
        -136.34970092773438,
        -225.65989685058594,
        44.4375
      ],
      "type": "VEC3"
    },
    {
      "bufferView": 2,
      "byteOffset": 583536,
      "componentType": 5126,
      "count": 4,
      "max": [
        0.0,
        1.0,
        0.0
      ],
      "min": [
        0.0,
        1.0,
        0.0
      ],
      "type": "VEC3"
    },
    {
      "bufferView": 0,
      "byteOffset": 246120,
      "componentType": 5125,
      "count": 6,
      "type": "SCALAR"
    },
    {
      "bufferView": 2,
      "byteOffset": 583584,
      "componentType": 5126,
      "count": 2,
      "max": [
        25.621978759765625,
        -225.28489685058594,
        -1.375
      ],
      "min": [
        25.621978759765625,
        -225.28489685058594,
        -3.1875
      ],
      "type": "VEC3"
    },
    {
      "bufferView": 0,
      "byteOffset": 246144,
      "componentType": 5125,
      "count": 2,
      "type": "SCALAR"
    }
  ],
  "asset": {
    "extras": {
      "author": "jimbogies (https://sketchfab.com/jimbogies)",
      "license": "CC-BY-4.0 (http://creativecommons.org/licenses/by/4.0/)",
      "source": "https://sketchfab.com/3d-models/free-small-old-house-c86ac5cb889e4b62af6ddea43d773882",
      "title": "Free Small Old House"
    },
    "generator": "Sketchfab-13.46.0",
    "version": "2.0"
  },
  "bufferViews": [
    {
      "buffer": 0,
      "byteLength": 246152,
      "name": "floatBufferViews",
      "target": 34963
    },
    {
      "buffer": 0,
      "byteLength": 194464,
      "byteOffset": 246152,
      "byteStride": 8,
      "name": "floatBufferViews",
      "target": 34962
    },
    {
      "buffer": 0,
      "byteLength": 583608,
      "byteOffset": 440616,
      "byteStride": 12,
      "name": "floatBufferViews",
      "target": 34962
    },
    {
      "buffer": 0,
      "byteLength": 83584,
      "byteOffset": 1024224,
      "byteStride": 16,
      "name": "floatBufferViews",
      "target": 34962
    }
  ],
  "buffers": [
    {
      "byteLength": 1107808,
      "uri": "scene.bin"
    }
  ],
  "images": [
    {
      "uri": "../textures/Door_baseColor.dds"
    },
    {
      "uri": "../textures/Glass01_baseColor.dds"
    },
    {
      "uri": "../textures/Glass01_metallicRoughness.dds"
    },
    {
      "uri": "../textures/WindowMetal_baseColor.dds"
    },
    {
      "uri": "../textures/WindowMetal_metallicRoughness.dds"
    },
    {
      "uri": "../textures/Concrete02_basecolor_baseColor.dds"
    },
    {
      "uri": "../textures/Concrete02_basecolor_metallicRoughness.dds"
    },
    {
      "uri": "../textures/Concrete02_basecolor_normal.dds"
    },
    {
      "uri": "../textures/Road_baseColor.dds"
    },
    {
      "uri": "../textures/Road_metallicRoughness.dds"
    },
    {
      "uri": "../textures/Road_normal.dds"
    },
    {
      "uri": "../textures/Wood_baseColor.dds"
    },
    {
      "uri": "../textures/Wood_metallicRoughness.dds"
    },
    {
      "uri": "../textures/Wood_normal.dds"
    },
    {
      "uri": "../textures/Block02_baseColor.dds"
    },
    {
      "uri": "../textures/Block02_metallicRoughness.dds"
    },
    {
      "uri": "../textures/Block02_normal.dds"
    },
    {
      "uri": "../textures/roof_baseColor.dds"
    },
    {
      "uri": "../textures/roof_metallicRoughness.dds"
    },
    {
      "uri": "../textures/roof_normal.dds"
    },
    {
      "uri": "../textures/Gutter_baseColor.dds"
    },
    {
      "uri": "../textures/Grass_baseColor.dds"
    },
    {
      "uri": "../textures/Grass_metallicRoughness.dds"
    },
    {
      "uri": "../textures/Grass_normal.dds"
    }
  ],
  "materials": [
    {
      "name": "Door",
      "pbrMetallicRoughness": {
        "baseColorTexture": {
          "index": 0
        },
        "metallicFactor": 0.16914337262742132,
        "roughnessFactor": 0.46171569284782576
      }
    },
    {
      "alphaMode": "BLEND",
      "name": "Glass01",
      "pbrMetallicRoughness": {
        "baseColorFactor": [
          1.0,
          1.0,
          1.0,
          0.9554314832197583
        ],
        "baseColorTexture": {
          "index": 1
        },
        "metallicFactor": 0.7299069863831965,
        "metallicRoughnessTexture": {
          "index": 2
        },
        "roughnessFactor": 0.28495324938133143
      }
    },
    {
      "name": "WindowMetal",
      "pbrMetallicRoughness": {
        "baseColorTexture": {
          "index": 3
        },
        "metallicFactor": 0.8091453231095561,
        "metallicRoughnessTexture": {
          "index": 4
        },
        "roughnessFactor": 0.2118101693262303
      }
    },
    {
      "name": "Concrete02_basecolor",
      "normalTexture": {
        "index": 7
      },
      "pbrMetallicRoughness": {
        "baseColorTexture": {
          "index": 5
        },
        "metallicFactor": 0.0,
        "metallicRoughnessTexture": {
          "index": 6
        }
      }
    },
    {
      "name": "Road",
      "normalTexture": {
        "index": 10
      },
      "pbrMetallicRoughness": {
        "baseColorTexture": {
          "index": 8
        },
        "metallicFactor": 0.0,
        "metallicRoughnessTexture": {
          "index": 9
        }
      }
    },
    {
      "name": "Wood",
      "normalTexture": {
        "index": 13
      },
      "pbrMetallicRoughness": {
        "baseColorTexture": {
          "index": 11
        },
        "metallicFactor": 0.0,
        "metallicRoughnessTexture": {
          "index": 12
        }
      }
    },
    {
      "name": "Block02",
      "normalTexture": {
        "index": 16
      },
      "pbrMetallicRoughness": {
        "baseColorTexture": {
          "index": 14
        },
        "metallicFactor": 0.0,
        "metallicRoughnessTexture": {
          "index": 15
        }
      }
    },
    {
      "name": "roof",
      "normalTexture": {
        "index": 19
      },
      "pbrMetallicRoughness": {
        "baseColorTexture": {
          "index": 17
        },
        "metallicFactor": 0.0,
        "metallicRoughnessTexture": {
          "index": 18
        }
      }
    },
    {
      "name": "Gutter",
      "pbrMetallicRoughness": {
        "baseColorTexture": {
          "index": 20
        },
        "metallicFactor": 0.08990503590106179,
        "roughnessFactor": 0.1569528592849045
      }
    },
    {
      "name": "Grass",
      "normalTexture": {
        "index": 23
      },
      "pbrMetallicRoughness": {
        "baseColorTexture": {
          "index": 21
        },
        "metallicFactor": 0.0,
        "metallicRoughnessTexture": {
          "index": 22
        }
      }
    },
    {
      "name": "material",
      "pbrMetallicRoughness": {
        "metallicFactor": 0.0,
        "roughnessFactor": 0.6
      }
    },
    {
      "name": "material_0",
      "pbrMetallicRoughness": {
        "baseColorFactor": [
          0.643137,
          0.698039,
          0.733333,
          1.0
        ],
        "metallicFactor": 0.0,
        "roughnessFactor": 0.6
      }
    },
    {
      "name": "edge_color000255",
      "pbrMetallicRoughness": {
        "metallicFactor": 0.0,
        "roughnessFactor": 0.6
      }
    }
  ],
  "meshes": [
    {
      "name": "Material2",
      "primitives": [
        {
          "attributes": {
            "NORMAL": 1,
            "POSITION": 0,
            "TEXCOORD_0": 2
          },
          "indices": 3,
          "material": 0,
          "mode": 4
        }
      ]
    },
    {
      "name": "Material2",
      "primitives": [
        {
          "attributes": {
            "NORMAL": 5,
            "POSITION": 4,
            "TEXCOORD_0": 6
          },
          "indices": 7,
          "material": 1,
          "mode": 4
        }
      ]
    },
    {
      "name": "Material2",
      "primitives": [
        {
          "attributes": {
            "NORMAL": 9,
            "POSITION": 8,
            "TEXCOORD_0": 10
          },
          "indices": 11,
          "material": 2,
          "mode": 4
        }
      ]
    },
    {
      "name": "Material2",
      "primitives": [
        {
          "attributes": {
            "NORMAL": 13,
            "POSITION": 12,
            "TANGENT": 14,
            "TEXCOORD_0": 15
          },
          "indices": 16,
          "material": 3,
          "mode": 4
        }
      ]
    },
    {
      "name": "Material2",
      "primitives": [
        {
          "attributes": {
            "NORMAL": 18,
            "POSITION": 17,
            "TANGENT": 19,
            "TEXCOORD_0": 20
          },
          "indices": 21,
          "material": 4,
          "mode": 4
        }
      ]
    },
    {
      "name": "Material2",
      "primitives": [
        {
          "attributes": {
            "NORMAL": 23,
            "POSITION": 22,
            "TANGENT": 24,
            "TEXCOORD_0": 25
          },
          "indices": 26,
          "material": 5,
          "mode": 4
        }
      ]
    },
    {
      "name": "Material2",
      "primitives": [
        {
          "attributes": {
            "NORMAL": 28,
            "POSITION": 27,
            "TANGENT": 29,
            "TEXCOORD_0": 30
          },
          "indices": 31,
          "material": 6,
          "mode": 4
        }
      ]
    },
    {
      "name": "Material2",
      "primitives": [
        {
          "attributes": {
            "NORMAL": 33,
            "POSITION": 32,
            "TANGENT": 34,
            "TEXCOORD_0": 35
          },
          "indices": 36,
          "material": 7,
          "mode": 4
        }
      ]
    },
    {
      "name": "Material2",
      "primitives": [
        {
          "attributes": {
            "NORMAL": 38,
            "POSITION": 37,
            "TEXCOORD_0": 39
          },
          "indices": 40,
          "material": 8,
          "mode": 4
        }
      ]
    },
    {
      "name": "Material2",
      "primitives": [
        {
          "attributes": {
            "NORMAL": 42,
            "POSITION": 41,
            "TANGENT": 43,
            "TEXCOORD_0": 44
          },
          "indices": 45,
          "material": 9,
          "mode": 4
        }
      ]
    },
    {
      "name": "Material2",
      "primitives": [
        {
          "attributes": {
            "NORMAL": 47,
            "POSITION": 46
          },
          "indices": 48,
          "material": 10,
          "mode": 4
        }
      ]
    },
    {
      "name": "Material3",
      "primitives": [
        {
          "attributes": {
            "NORMAL": 50,
            "POSITION": 49
          },
          "indices": 51,
          "material": 11,
          "mode": 4
        }
      ]
    },
    {
      "name": "Material2",
      "primitives": [
        {
          "attributes": {
            "POSITION": 52
          },
          "indices": 53,
          "material": 12,
          "mode": 1
        }
      ]
    }
  ],
  "nodes": [
    {
      "children": [
        1
      ],
      "matrix": [
        1.0,
        0.0,
        0.0,
        0.0,
        0.0,
        2.220446049250313e-16,
        -1.0,
        0.0,
        0.0,
        1.0,
        2.220446049250313e-16,
        0.0,
        0.0,
        0.0,
        0.0,
        1.0
      ],
      "name": "Sketchfab_model"
    },
    {
      "children": [
        2,
        3,
        4,
        5,
        6,
        7,
        8,
        9,
        10,
        11,
        12,
        13,
        14,
        15
      ],
      "name": "Collada visual scene group"
    },
    {
      "mesh": 0,
      "name": "Material2"
    },
    {
      "mesh": 1,
      "name": "Material2"
    },
    {
      "mesh": 2,
      "name": "Material2"
    },
    {
      "mesh": 3,
      "name": "Material2"
    },
    {
      "mesh": 4,
      "name": "Material2"
    },
    {
      "mesh": 5,
      "name": "Material2"
    },
    {
      "mesh": 6,
      "name": "Material2"
    },
    {
      "mesh": 7,
      "name": "Material2"
    },
    {
      "mesh": 8,
      "name": "Material2"
    },
    {
      "mesh": 9,
      "name": "Material2"
    },
    {
      "mesh": 10,
      "name": "Material2"
    },
    {
      "mesh": 11,
      "name": "Material3"
    },
    {
      "mesh": 12,
      "name": "Material2"
    },
    {
      "children": [
        16
      ],
      "name": "SketchUp"
    },
    {
      "children": [
        17
      ],
      "matrix": [
        0.8048129,
        0.5935286,
        -1.387779e-17,
        0.0,
        -0.0360553,
        0.04889026,
        0.9981532,
        0.0,
        0.5924324,
        -0.8033265,
        0.06074736,
        0.0,
        394.4594,
        -534.7875,
        85.44575,
        1.0
      ],
      "name": "skp_camera_Last_Saved_SketchUp_View"
    },
    {
      "name": "ID1"
    }
  ],
  "samplers": [
    {
      "magFilter": 9729,
      "minFilter": 9987,
      "wrapS": 10497,
      "wrapT": 10497
    }
  ],
  "scene": 0,
  "scenes": [
    {
      "name": "Sketchfab_Scene",
      "nodes": [
        0
      ]
    }
  ],
  "textures": [
    {
      "sampler": 0,
      "source": 0
    },
    {
      "sampler": 0,
      "source": 1
    },
    {
      "sampler": 0,
      "source": 2
    },
    {
      "sampler": 0,
      "source": 3
    },
    {
      "sampler": 0,
      "source": 4
    },
    {
      "sampler": 0,
      "source": 5
    },
    {
      "sampler": 0,
      "source": 6
    },
    {
      "sampler": 0,
      "source": 7
    },
    {
      "sampler": 0,
      "source": 8
    },
    {
      "sampler": 0,
      "source": 9
    },
    {
      "sampler": 0,
      "source": 10
    },
    {
      "sampler": 0,
      "source": 11
    },
    {
      "sampler": 0,
      "source": 12
    },
    {
      "sampler": 0,
      "source": 13
    },
    {
      "sampler": 0,
      "source": 14
    },
    {
      "sampler": 0,
      "source": 15
    },
    {
      "sampler": 0,
      "source": 16
    },
    {
      "sampler": 0,
      "source": 17
    },
    {
      "sampler": 0,
      "source": 18
    },
    {
      "sampler": 0,
      "source": 19
    },
    {
      "sampler": 0,
      "source": 20
    },
    {
      "sampler": 0,
      "source": 21
    },
    {
      "sampler": 0,
      "source": 22
    },
    {
      "sampler": 0,
      "source": 23
    }
  ]
}
