{"asset":{"generator":"glTF-Transform v4.0.2","version":"2.0"},"accessors":[{"name":"obj1-Mesh_0_positions","type":"VEC3","componentType":5126,"count":1748,"max":[2.3167738914489746,2.2866709232330322,1.7505170106887817],"min":[-2.3167738914489746,-2.2866709232330322,-1.7505170106887817],"bufferView":0,"byteOffset":0},{"name":"obj1-Mesh_0_normals","type":"VEC3","componentType":5126,"count":1748,"bufferView":0,"byteOffset":12},{"name":"obj1-Mesh_0_texcoords","type":"VEC2","componentType":5126,"count":1748,"bufferView":0,"byteOffset":24},{"name":"obj1-Mesh_0_indices","type":"SCALAR","componentType":5123,"count":5262,"bufferView":1,"byteOffset":0}],"bufferViews":[{"buffer":0,"byteOffset":0,"byteLength":55936,"byteStride":32,"target":34962},{"buffer":0,"byteOffset":55936,"byteLength":10524,"target":34963}],"samplers":[{"wrapS":10497,"wrapT":10497}],"textures":[{"source":0,"sampler":0}],"images":[{"name":"None_baseColor","mimeType":"image/vnd.ms-dds","uri":"baseColor.vnd.ms-dds"}],"buffers":[{"name":"old_simple_drawer","uri":"old_simple_drawer.bin","byteLength":66460}],"materials":[{"name":"mat0","pbrMetallicRoughness":{"metallicFactor":0,"baseColorTexture":{"index":0}}}],"meshes":[{"name":"obj1-Mesh","primitives":[{"attributes":{"POSITION":0,"NORMAL":1,"TEXCOORD_0":2},"mode":4,"material":0,"indices":3}]}],"nodes":[{"name":"obj1","mesh":0}],"scenes":[{"nodes":[0]}],"scene":0}