{
  "accessors": [
    {
      "bufferView": 2,
      "componentType": 5126,
      "count": 2246,
      "max": [
        8.490473747253418,
        4.7271833419799805,
        5.618549823760986
      ],
      "min": [
        -5.1376953125,
        -5.653138160705566,
        -4.17669677734375
      ],
      "type": "VEC3"
    },
    {
      "bufferView": 2,
      "byteOffset": 26952,
      "componentType": 5126,
      "count": 2246,
      "max": [
        1.0,
        1.0,
        1.0
      ],
      "min": [
        -1.0,
        -1.0,
        -1.0
      ],
      "type": "VEC3"
    },
    {
      "bufferView": 1,
      "componentType": 5126,
      "count": 2246,
      "max": [
        0.9990000128746033,
        -0.002102999947965145
      ],
      "min": [
        0.0010499999625608325,
        -0.9985499978065491
      ],
      "type": "VEC2"
    },
    {
      "bufferView": 0,
      "componentType": 5125,
      "count": 4380,
      "type": "SCALAR"
    }
  ],
  "asset": {
    "extras": {
      "author": "Garbage Raccoon (https://sketchfab.com/GarbageRaccoon)",
      "license": "CC-BY-4.0 (http://creativecommons.org/licenses/by/4.0/)",
      "source": "https://sketchfab.com/3d-models/small-bombed-farm-building-35e61c48b0e44f0092c78f78fa04c1c0",
      "title": "small_bombed_farm_building"
    },
    "generator": "Sketchfab-16.72.0",
    "version": "2.0"
  },
  "bufferViews": [
    {
      "buffer": 0,
      "byteLength": 17520,
      "name": "floatBufferViews",
      "target": 34963
    },
    {
      "buffer": 0,
      "byteLength": 17968,
      "byteOffset": 17520,
      "byteStride": 8,
      "name": "floatBufferViews",
      "target": 34962
    },
    {
      "buffer": 0,
      "byteLength": 53904,
      "byteOffset": 35488,
      "byteStride": 12,
      "name": "floatBufferViews",
      "target": 34962
    }
  ],
  "buffers": [
    {
      "byteLength": 89392,
      "uri": "scene.bin"
    }
  ],
  "extensionsUsed": [
    "KHR_materials_unlit"
  ],

  "materials": [
    {
      "doubleSided": true,
      "extensions": {
        "KHR_materials_unlit": {}
      },
      "name": "small_bombed_farm_building",
"pbrMetallicRoughness": {
  "baseColorFactor": [1.0, 1.0, 1.0, 1.0],
  "metallicFactor": 0.0
}

    }
  ],
  "meshes": [
    {
      "name": "small_bombed_farm_building_small_bombed_farm_building_0",
      "primitives": [
        {
          "attributes": {
            "NORMAL": 1,
            "POSITION": 0,
            "TEXCOORD_0": 2
          },
          "indices": 3,
          "material": 0,
          "mode": 4
        }
      ]
    }
  ],
  "nodes": [
    {
      "children": [
        1
      ],
      "matrix": [
        0.5235187411308289,
        0.0,
        0.0,
        0.0,
        0.0,
        1.1624451204524463e-16,
        -0.5235187411308289,
        0.0,
        0.0,
        0.5235187411308289,
        1.1624451204524463e-16,
        0.0,
        0.0,
        0.0,
        0.0,
        1.0
      ],
      "name": "Sketchfab_model"
    },
    {
      "children": [
        2
      ],
      "matrix": [
        0.009999999776482582,
        0.0,
        0.0,
        0.0,
        0.0,
        0.0,
        0.009999999776482582,
        0.0,
        0.0,
        -0.009999999776482582,
        0.0,
        0.0,
        0.0,
        0.0,
        0.0,
        1.0
      ],
      "name": "small_bombed_farm_building.fbx"
    },
    {
      "children": [
        3
      ],
      "name": "RootNode"
    },
    {
      "children": [
        4
      ],
      "matrix": [
        100.0,
        0.0,
        0.0,
        0.0,
        -0.0,
        -1.629206793918314e-05,
        -99.99999999999868,
        0.0,
        0.0,
        99.99999999999868,
        -1.629206793918314e-05,
        0.0,
        -232.36148071289063,
        417.66961669921875,
        -22.826854705810547,
        1.0
      ],
      "name": "small_bombed_farm_building"
    },
    {
      "mesh": 0,
      "name": "small_bombed_farm_building_small_bombed_farm_building_0"
    }
  ],
  "samplers": [
    {
      "magFilter": 9729,
      "minFilter": 9987,
      "wrapS": 10497,
      "wrapT": 10497
    }
  ],
  "scene": 0,
  "scenes": [
    {
      "name": "Sketchfab_Scene",
      "nodes": [
        0
      ]
    }
  ]

}
