{
  "accessors": [
    {
      "bufferView": 2,
      "componentType": 5126,
      "count": 3775,
      "max": [
        5.007768154144287,
        9.876745223999023,
        3.8788909912109375
      ],
      "min": [
        -5.020270824432373,
        -0.043061401695013046,
        -3.900606155395508
      ],
      "type": "VEC3"
    },
    {
      "bufferView": 2,
      "byteOffset": 45300,
      "componentType": 5126,
      "count": 3775,
      "max": [
        0.9989654421806335,
        0.9994944334030151,
        0.9989904761314392
      ],
      "min": [
        -0.9997972249984741,
        -0.9999932050704956,
        -0.9999172687530518
      ],
      "type": "VEC3"
    },
    {
      "bufferView": 3,
      "componentType": 5126,
      "count": 3775,
      "max": [
        0.9999912977218628,
        0.9987348914146423,
        0.9976235032081604,
        1.0
      ],
      "min": [
        -0.9993256330490112,
        -0.999405562877655,
        -0.9988192915916443,
        1.0
      ],
      "type": "VEC4"
    },
    {
      "bufferView": 1,
      "componentType": 5126,
      "count": 3775,
      "max": [
        0.9977018237113953,
        0.999500036239624
      ],
      "min": [
        0.0005000000237487257,
        0.0005000000237487257
      ],
      "type": "VEC2"
    },
    {
      "bufferView": 1,
      "byteOffset": 30200,
      "componentType": 5126,
      "count": 3775,
      "max": [
        0.9977018237113953,
        0.999500036239624
      ],
      "min": [
        0.0005000000237487257,
        0.0005000000237487257
      ],
      "type": "VEC2"
    },
    {
      "bufferView": 1,
      "byteOffset": 60400,
      "componentType": 5126,
      "count": 3775,
      "max": [
        0.9977018237113953,
        0.999500036239624
      ],
      "min": [
        0.0005000000237487257,
        0.0005000000237487257
      ],
      "type": "VEC2"
    },
    {
      "bufferView": 1,
      "byteOffset": 90600,
      "componentType": 5126,
      "count": 3775,
      "max": [
        0.9977018237113953,
        0.999500036239624
      ],
      "min": [
        0.0005000000237487257,
        0.0005000000237487257
      ],
      "type": "VEC2"
    },
    {
      "bufferView": 0,
      "componentType": 5125,
      "count": 19770,
      "type": "SCALAR"
    }
  ],
  "asset": {
    "extras": {
      "author": "yellokab (https://sketchfab.com/yellokab)",
      "license": "CC-BY-4.0 (http://creativecommons.org/licenses/by/4.0/)",
      "source": "https://sketchfab.com/3d-models/bunny-4cc18d8e0552459b8897948b81cb20ad",
      "title": "Bunny"
    },
    "generator": "Sketchfab-12.67.0",
    "version": "2.0"
  },
  "bufferViews": [
    {
      "buffer": 0,
      "byteLength": 79080,
      "name": "floatBufferViews",
      "target": 34963
    },
    {
      "buffer": 0,
      "byteLength": 120800,
      "byteOffset": 79080,
      "byteStride": 8,
      "name": "floatBufferViews",
      "target": 34962
    },
    {
      "buffer": 0,
      "byteLength": 90600,
      "byteOffset": 199880,
      "byteStride": 12,
      "name": "floatBufferViews",
      "target": 34962
    },
    {
      "buffer": 0,
      "byteLength": 60400,
      "byteOffset": 290480,
      "byteStride": 16,
      "name": "floatBufferViews",
      "target": 34962
    }
  ],
  "buffers": [
    {
      "byteLength": 350880,
      "uri": "scene.bin"
    }
  ],
  "images": [
    {
      "uri": "../textures/Default_Material1_baseColor.dds"
    },
    {
      "uri": "../textures/Default_Material1_metallicRoughness.dds"
    },
    {
      "uri": "../textures/Default_Material1_normal.dds"
    }
  ],
  "materials": [
    {
      "doubleSided": true,
      "name": "Default_Material1",
      "normalTexture": {
        "index": 2
      },
      "pbrMetallicRoughness": {
        "baseColorTexture": {
          "index": 0
        },
        "metallicFactor": 0.0,
        "metallicRoughnessTexture": {
          "index": 1
        }
      }
    }
  ],
  "meshes": [
    {
      "name": "default-retopo 3_Default Material1_0",
      "primitives": [
        {
          "attributes": {
            "NORMAL": 1,
            "POSITION": 0,
            "TANGENT": 2,
            "TEXCOORD_0": 3,
            "TEXCOORD_1": 4,
            "TEXCOORD_2": 5,
            "TEXCOORD_3": 6
          },
          "indices": 7,
          "material": 0,
          "mode": 4
        }
      ]
    }
  ],
  "nodes": [
    {
      "children": [
        1
      ],
      "matrix": [
        1.0,
        0.0,
        0.0,
        0.0,
        0.0,
        2.220446049250313e-16,
        -1.0,
        0.0,
        0.0,
        1.0,
        2.220446049250313e-16,
        0.0,
        0.0,
        0.0,
        0.0,
        1.0
      ],
      "name": "Sketchfab_model"
    },
    {
      "children": [
        2
      ],
      "matrix": [
        1.0,
        0.0,
        0.0,
        0.0,
        0.0,
        0.0,
        1.0,
        0.0,
        0.0,
        -1.0,
        0.0,
        0.0,
        0.0,
        0.0,
        0.0,
        1.0
      ],
      "name": "c1fb4d79ca47478a9f03a6dfb7de0d99.fbx"
    },
    {
      "children": [
        3
      ],
      "name": "RootNode"
    },
    {
      "children": [
        4
      ],
      "matrix": [
        169.30511474609375,
        0.0,
        0.0,
        0.0,
        0.0,
        169.30511474609375,
        0.0,
        0.0,
        0.0,
        0.0,
        169.30511474609375,
        0.0,
        0.0,
        -38.532222747802734,
        0.0,
        1.0
      ],
      "name": "default-retopo 3"
    },
    {
      "mesh": 0,
      "name": "default-retopo 3_Default Material1_0"
    }
  ],
  "samplers": [
    {
      "magFilter": 9729,
      "minFilter": 9987,
      "wrapS": 10497,
      "wrapT": 10497
    }
  ],
  "scene": 0,
  "scenes": [
    {
      "name": "Sketchfab_Scene",
      "nodes": [
        0
      ]
    }
  ],
  "textures": [
    {
      "sampler": 0,
      "source": 0
    },
    {
      "sampler": 0,
      "source": 1
    },
    {
      "sampler": 0,
      "source": 2
    }
  ]
}
