{
  "accessors": [
    {
      "bufferView": 2,
      "componentType": 5126,
      "count": 471,
      "max": [
        2.983987331390381,
        0.8007018566131592,
        2.6284382343292236
      ],
      "min": [
        -1.5844848155975342,
        -0.8121011257171631,
        -2.6284384727478027
      ],
      "type": "VEC3"
    },
    {
      "bufferView": 2,
      "byteOffset": 5652,
      "componentType": 5126,
      "count": 471,
      "max": [
        1.0,
        1.0,
        1.0
      ],
      "min": [
        -1.0,
        -1.0,
        -1.0
      ],
      "type": "VEC3"
    },
    {
      "bufferView": 3,
      "componentType": 5126,
      "count": 471,
      "max": [
        1.0,
        1.0,
        1.0,
        1.0
      ],
      "min": [
        -1.0,
        -1.0,
        -1.0,
        1.0
      ],
      "type": "VEC4"
    },
    {
      "bufferView": 1,
      "componentType": 5126,
      "count": 471,
      "max": [
        0.9913038015365601,
        0.9991413950920105
      ],
      "min": [
        0.0008586539188399911,
        0.0008586599724367261
      ],
      "type": "VEC2"
    },
    {
      "bufferView": 1,
      "byteOffset": 3768,
      "componentType": 5126,
      "count": 471,
      "max": [
        0.9913038015365601,
        0.9991413950920105
      ],
      "min": [
        0.0008586539188399911,
        0.0008586599724367261
      ],
      "type": "VEC2"
    },
    {
      "bufferView": 1,
      "byteOffset": 7536,
      "componentType": 5126,
      "count": 471,
      "max": [
        0.9913038015365601,
        0.9991413950920105
      ],
      "min": [
        0.0008586539188399911,
        0.0008586599724367261
      ],
      "type": "VEC2"
    },
    {
      "bufferView": 1,
      "byteOffset": 11304,
      "componentType": 5126,
      "count": 471,
      "max": [
        0.9913038015365601,
        0.9991413950920105
      ],
      "min": [
        0.0008586539188399911,
        0.0008586599724367261
      ],
      "type": "VEC2"
    },
    {
      "bufferView": 0,
      "componentType": 5125,
      "count": 1017,
      "type": "SCALAR"
    },
    {
      "bufferView": 2,
      "byteOffset": 11304,
      "componentType": 5126,
      "count": 118,
      "max": [
        0.15619516372680664,
        2.9802322387695313e-08,
        0.49252814054489136
      ],
      "min": [
        -0.15619540214538574,
        -0.019864872097969055,
        -0.49252793192863464
      ],
      "type": "VEC3"
    },
    {
      "bufferView": 2,
      "byteOffset": 12720,
      "componentType": 5126,
      "count": 118,
      "max": [
        1.0,
        0.0,
        1.0
      ],
      "min": [
        -1.0,
        -1.0,
        -1.0
      ],
      "type": "VEC3"
    },
    {
      "bufferView": 3,
      "byteOffset": 7536,
      "componentType": 5126,
      "count": 118,
      "max": [
        1.0,
        1.0,
        0.831416666507721,
        1.0
      ],
      "min": [
        -0.971364438533783,
        -1.0,
        -0.8314176797866821,
        1.0
      ],
      "type": "VEC4"
    },
    {
      "bufferView": 1,
      "byteOffset": 15072,
      "componentType": 5126,
      "count": 118,
      "max": [
        0.9646131992340088,
        0.9795110821723938
      ],
      "min": [
        0.041700251400470734,
        0.29764124751091003
      ],
      "type": "VEC2"
    },
    {
      "bufferView": 1,
      "byteOffset": 16016,
      "componentType": 5126,
      "count": 118,
      "max": [
        0.9646131992340088,
        0.9795110821723938
      ],
      "min": [
        0.041700251400470734,
        0.29764124751091003
      ],
      "type": "VEC2"
    },
    {
      "bufferView": 1,
      "byteOffset": 16960,
      "componentType": 5126,
      "count": 118,
      "max": [
        0.9646131992340088,
        0.9795110821723938
      ],
      "min": [
        0.041700251400470734,
        0.29764124751091003
      ],
      "type": "VEC2"
    },
    {
      "bufferView": 1,
      "byteOffset": 17904,
      "componentType": 5126,
      "count": 118,
      "max": [
        0.9646131992340088,
        0.9795110821723938
      ],
      "min": [
        0.041700251400470734,
        0.29764124751091003
      ],
      "type": "VEC2"
    },
    {
      "bufferView": 0,
      "byteOffset": 4068,
      "componentType": 5125,
      "count": 234,
      "type": "SCALAR"
    },
    {
      "bufferView": 2,
      "byteOffset": 14136,
      "componentType": 5126,
      "count": 182,
      "max": [
        0.017384648323059082,
        0.025296971201896667,
        0.017384707927703857
      ],
      "min": [
        -0.06056678295135498,
        -0.004124656319618225,
        -0.017384767532348633
      ],
      "type": "VEC3"
    },
    {
      "bufferView": 2,
      "byteOffset": 16320,
      "componentType": 5126,
      "count": 182,
      "max": [
        1.0,
        1.0,
        1.0
      ],
      "min": [
        -1.0,
        -0.9959611892700195,
        -1.0
      ],
      "type": "VEC3"
    },
    {
      "bufferView": 1,
      "byteOffset": 18848,
      "componentType": 5126,
      "count": 182,
      "max": [
        0.8242934942245483,
        0.8027228116989136
      ],
      "min": [
        0.542736828327179,
        0.4021926522254944
      ],
      "type": "VEC2"
    },
    {
      "bufferView": 0,
      "byteOffset": 5004,
      "componentType": 5125,
      "count": 510,
      "type": "SCALAR"
    },
    {
      "bufferView": 2,
      "byteOffset": 18504,
      "componentType": 5126,
      "count": 118,
      "max": [
        0.15619516372680664,
        2.9802322387695313e-08,
        0.49252814054489136
      ],
      "min": [
        -0.1561952829360962,
        -0.019864872097969055,
        -0.49252793192863464
      ],
      "type": "VEC3"
    },
    {
      "bufferView": 2,
      "byteOffset": 19920,
      "componentType": 5126,
      "count": 118,
      "max": [
        1.0,
        0.0,
        1.0
      ],
      "min": [
        -1.0,
        -1.0,
        -1.0
      ],
      "type": "VEC3"
    },
    {
      "bufferView": 3,
      "byteOffset": 9424,
      "componentType": 5126,
      "count": 118,
      "max": [
        1.0,
        1.0,
        0.8314176201820374,
        1.0
      ],
      "min": [
        -1.0,
        -1.0,
        -0.718889594078064,
        1.0
      ],
      "type": "VEC4"
    },
    {
      "bufferView": 1,
      "byteOffset": 20304,
      "componentType": 5126,
      "count": 118,
      "max": [
        0.9820538759231567,
        0.9812461137771606
      ],
      "min": [
        0.059289880096912384,
        0.37233442068099976
      ],
      "type": "VEC2"
    },
    {
      "bufferView": 1,
      "byteOffset": 21248,
      "componentType": 5126,
      "count": 118,
      "max": [
        0.9820538759231567,
        0.9812461137771606
      ],
      "min": [
        0.059289880096912384,
        0.37233442068099976
      ],
      "type": "VEC2"
    },
    {
      "bufferView": 1,
      "byteOffset": 22192,
      "componentType": 5126,
      "count": 118,
      "max": [
        0.9820538759231567,
        0.9812461137771606
      ],
      "min": [
        0.059289880096912384,
        0.37233442068099976
      ],
      "type": "VEC2"
    },
    {
      "bufferView": 1,
      "byteOffset": 23136,
      "componentType": 5126,
      "count": 118,
      "max": [
        0.9820538759231567,
        0.9812461137771606
      ],
      "min": [
        0.059289880096912384,
        0.37233442068099976
      ],
      "type": "VEC2"
    },
    {
      "bufferView": 0,
      "byteOffset": 7044,
      "componentType": 5125,
      "count": 234,
      "type": "SCALAR"
    },
    {
      "bufferView": 2,
      "byteOffset": 21336,
      "componentType": 5126,
      "count": 160,
      "max": [
        0.1895492672920227,
        0.2975778579711914,
        0.1895492672920227
      ],
      "min": [
        -0.18954932689666748,
        -0.2975780963897705,
        -0.1895492672920227
      ],
      "type": "VEC3"
    },
    {
      "bufferView": 2,
      "byteOffset": 23256,
      "componentType": 5126,
      "count": 160,
      "max": [
        1.0,
        0.9986547827720642,
        1.0
      ],
      "min": [
        -1.0,
        -0.6551507115364075,
        -1.0
      ],
      "type": "VEC3"
    },
    {
      "bufferView": 3,
      "byteOffset": 11312,
      "componentType": 5126,
      "count": 160,
      "max": [
        1.0,
        1.0,
        1.0,
        1.0
      ],
      "min": [
        -1.0,
        -1.0,
        -1.0,
        1.0
      ],
      "type": "VEC4"
    },
    {
      "bufferView": 1,
      "byteOffset": 24080,
      "componentType": 5126,
      "count": 160,
      "max": [
        0.9844734072685242,
        0.9954982399940491
      ],
      "min": [
        0.09323447942733765,
        0.11210572719573975
      ],
      "type": "VEC2"
    },
    {
      "bufferView": 1,
      "byteOffset": 25360,
      "componentType": 5126,
      "count": 160,
      "max": [
        0.9844734072685242,
        0.9954982399940491
      ],
      "min": [
        0.09323447942733765,
        0.11210572719573975
      ],
      "type": "VEC2"
    },
    {
      "bufferView": 1,
      "byteOffset": 26640,
      "componentType": 5126,
      "count": 160,
      "max": [
        0.9844734072685242,
        0.9954982399940491
      ],
      "min": [
        0.09323447942733765,
        0.11210572719573975
      ],
      "type": "VEC2"
    },
    {
      "bufferView": 1,
      "byteOffset": 27920,
      "componentType": 5126,
      "count": 160,
      "max": [
        0.9844734072685242,
        0.9954982399940491
      ],
      "min": [
        0.09323447942733765,
        0.11210572719573975
      ],
      "type": "VEC2"
    },
    {
      "bufferView": 0,
      "byteOffset": 7980,
      "componentType": 5125,
      "count": 348,
      "type": "SCALAR"
    },
    {
      "bufferView": 2,
      "byteOffset": 25176,
      "componentType": 5126,
      "count": 4,
      "max": [
        0.11728805303573608,
        0.04317319393157959,
        0.11728807538747787
      ],
      "min": [
        -0.11728811264038086,
        0.04317319393157959,
        -0.11728808283805847
      ],
      "type": "VEC3"
    },
    {
      "bufferView": 2,
      "byteOffset": 25224,
      "componentType": 5126,
      "count": 4,
      "max": [
        0.0,
        1.0,
        -0.0
      ],
      "min": [
        0.0,
        1.0,
        -0.0
      ],
      "type": "VEC3"
    },
    {
      "bufferView": 1,
      "byteOffset": 29200,
      "componentType": 5126,
      "count": 4,
      "max": [
        0.6511651277542114,
        0.9908633828163147
      ],
      "min": [
        0.6337947249412537,
        0.9734929800033569
      ],
      "type": "VEC2"
    },
    {
      "bufferView": 0,
      "byteOffset": 9372,
      "componentType": 5125,
      "count": 6,
      "type": "SCALAR"
    },
    {
      "bufferView": 2,
      "byteOffset": 25272,
      "componentType": 5126,
      "count": 104,
      "max": [
        0.06724190711975098,
        0.5541479587554932,
        0.06724226474761963
      ],
      "min": [
        -0.06724262237548828,
        -0.5845984220504761,
        -0.06724214553833008
      ],
      "type": "VEC3"
    },
    {
      "bufferView": 2,
      "byteOffset": 26520,
      "componentType": 5126,
      "count": 104,
      "max": [
        1.0,
        0.8350046277046204,
        1.0
      ],
      "min": [
        -1.0,
        -1.9900255665561417e-08,
        -1.0
      ],
      "type": "VEC3"
    },
    {
      "bufferView": 3,
      "byteOffset": 13872,
      "componentType": 5126,
      "count": 104,
      "max": [
        1.0,
        0.5635685920715332,
        1.0,
        1.0
      ],
      "min": [
        -1.0,
        -0.9999977946281433,
        -1.0,
        1.0
      ],
      "type": "VEC4"
    },
    {
      "bufferView": 1,
      "byteOffset": 29232,
      "componentType": 5126,
      "count": 104,
      "max": [
        0.23223425447940826,
        0.9836925864219666
      ],
      "min": [
        0.03401142731308937,
        0.8196027278900146
      ],
      "type": "VEC2"
    },
    {
      "bufferView": 1,
      "byteOffset": 30064,
      "componentType": 5126,
      "count": 104,
      "max": [
        0.23223425447940826,
        0.9836925864219666
      ],
      "min": [
        0.03401142731308937,
        0.8196027278900146
      ],
      "type": "VEC2"
    },
    {
      "bufferView": 1,
      "byteOffset": 30896,
      "componentType": 5126,
      "count": 104,
      "max": [
        0.23223425447940826,
        0.9836925864219666
      ],
      "min": [
        0.03401142731308937,
        0.8196027278900146
      ],
      "type": "VEC2"
    },
    {
      "bufferView": 1,
      "byteOffset": 31728,
      "componentType": 5126,
      "count": 104,
      "max": [
        0.23223425447940826,
        0.9836925864219666
      ],
      "min": [
        0.03401142731308937,
        0.8196027278900146
      ],
      "type": "VEC2"
    },
    {
      "bufferView": 0,
      "byteOffset": 9396,
      "componentType": 5125,
      "count": 360,
      "type": "SCALAR"
    },
    {
      "bufferView": 2,
      "byteOffset": 27768,
      "componentType": 5126,
      "count": 118,
      "max": [
        1.6649446487426758,
        2.191269874572754,
        2.682084321975708
      ],
      "min": [
        -1.667829990386963,
        0.804563581943512,
        -2.6766152381896973
      ],
      "type": "VEC3"
    },
    {
      "bufferView": 2,
      "byteOffset": 29184,
      "componentType": 5126,
      "count": 118,
      "max": [
        0.9991981387138367,
        1.0,
        0.9983490109443665
      ],
      "min": [
        -0.9986826777458191,
        -0.9998546242713928,
        -0.9986076951026917
      ],
      "type": "VEC3"
    },
    {
      "bufferView": 3,
      "byteOffset": 15536,
      "componentType": 5126,
      "count": 118,
      "max": [
        0.7809866666793823,
        0.9986831545829773,
        0.9912509918212891,
        1.0
      ],
      "min": [
        -0.9999973177909851,
        -0.9991987347602844,
        -1.0,
        1.0
      ],
      "type": "VEC4"
    },
    {
      "bufferView": 1,
      "byteOffset": 32560,
      "componentType": 5126,
      "count": 118,
      "max": [
        0.9693959951400757,
        0.9910064339637756
      ],
      "min": [
        0.0008586609619669616,
        0.0008586520561948419
      ],
      "type": "VEC2"
    },
    {
      "bufferView": 1,
      "byteOffset": 33504,
      "componentType": 5126,
      "count": 118,
      "max": [
        0.9693959951400757,
        0.9910064339637756
      ],
      "min": [
        0.0008586609619669616,
        0.0008586520561948419
      ],
      "type": "VEC2"
    },
    {
      "bufferView": 1,
      "byteOffset": 34448,
      "componentType": 5126,
      "count": 118,
      "max": [
        0.9693959951400757,
        0.9910064339637756
      ],
      "min": [
        0.0008586609619669616,
        0.0008586520561948419
      ],
      "type": "VEC2"
    },
    {
      "bufferView": 1,
      "byteOffset": 35392,
      "componentType": 5126,
      "count": 118,
      "max": [
        0.9693959951400757,
        0.9910064339637756
      ],
      "min": [
        0.0008586609619669616,
        0.0008586520561948419
      ],
      "type": "VEC2"
    },
    {
      "bufferView": 0,
      "byteOffset": 10836,
      "componentType": 5125,
      "count": 336,
      "type": "SCALAR"
    },
    {
      "bufferView": 2,
      "byteOffset": 30600,
      "componentType": 5126,
      "count": 14,
      "max": [
        1.6581988334655762,
        2.101120710372925,
        2.6762547492980957
      ],
      "min": [
        -1.6639692783355713,
        0.804563581943512,
        -2.6671969890594482
      ],
      "type": "VEC3"
    },
    {
      "bufferView": 2,
      "byteOffset": 30768,
      "componentType": 5126,
      "count": 14,
      "max": [
        0.016553223133087158,
        0.6303254961967468,
        0.7763310074806213
      ],
      "min": [
        -0.016624271869659424,
        -1.0,
        -0.8216909766197205
      ],
      "type": "VEC3"
    },
    {
      "bufferView": 1,
      "byteOffset": 36336,
      "componentType": 5126,
      "count": 14,
      "max": [
        0.9736699461936951,
        0.8656613826751709
      ],
      "min": [
        0.37883269786834717,
        0.00464274175465107
      ],
      "type": "VEC2"
    },
    {
      "bufferView": 0,
      "byteOffset": 12180,
      "componentType": 5125,
      "count": 30,
      "type": "SCALAR"
    },
    {
      "bufferView": 2,
      "byteOffset": 30936,
      "componentType": 5126,
      "count": 47,
      "max": [
        0.9163284301757813,
        0.11313974857330322,
        1.87772536277771
      ],
      "min": [
        -0.9571154713630676,
        -0.26321494579315186,
        -1.9103996753692627
      ],
      "type": "VEC3"
    },
    {
      "bufferView": 2,
      "byteOffset": 31500,
      "componentType": 5126,
      "count": 47,
      "max": [
        0.9975748062133789,
        0.9850839972496033,
        0.9945902228355408
      ],
      "min": [
        -0.9245897531509399,
        -0.9853358864784241,
        -0.9945884346961975
      ],
      "type": "VEC3"
    },
    {
      "bufferView": 3,
      "byteOffset": 17424,
      "componentType": 5126,
      "count": 47,
      "max": [
        0.9846535921096802,
        0.9936254024505615,
        0.9999991655349731,
        1.0
      ],
      "min": [
        -0.9853367209434509,
        -0.9975717663764954,
        -0.9999988675117493,
        1.0
      ],
      "type": "VEC4"
    },
    {
      "bufferView": 1,
      "byteOffset": 36448,
      "componentType": 5126,
      "count": 47,
      "max": [
        0.8154666423797607,
        0.8401443362236023
      ],
      "min": [
        0.09800482541322708,
        0.000858657993376255
      ],
      "type": "VEC2"
    },
    {
      "bufferView": 1,
      "byteOffset": 36824,
      "componentType": 5126,
      "count": 47,
      "max": [
        0.8154666423797607,
        0.8401443362236023
      ],
      "min": [
        0.09800482541322708,
        0.000858657993376255
      ],
      "type": "VEC2"
    },
    {
      "bufferView": 1,
      "byteOffset": 37200,
      "componentType": 5126,
      "count": 47,
      "max": [
        0.8154666423797607,
        0.8401443362236023
      ],
      "min": [
        0.09800482541322708,
        0.000858657993376255
      ],
      "type": "VEC2"
    },
    {
      "bufferView": 1,
      "byteOffset": 37576,
      "componentType": 5126,
      "count": 47,
      "max": [
        0.8154666423797607,
        0.8401443362236023
      ],
      "min": [
        0.09800482541322708,
        0.000858657993376255
      ],
      "type": "VEC2"
    },
    {
      "bufferView": 0,
      "byteOffset": 12300,
      "componentType": 5125,
      "count": 126,
      "type": "SCALAR"
    },
    {
      "bufferView": 2,
      "byteOffset": 32064,
      "componentType": 5126,
      "count": 4,
      "max": [
        0.9036343097686768,
        0.047482460737228394,
        1.8729102611541748
      ],
      "min": [
        -0.8621343970298767,
        -0.26321494579315186,
        -1.9055845737457275
      ],
      "type": "VEC3"
    },
    {
      "bufferView": 2,
      "byteOffset": 32112,
      "componentType": 5126,
      "count": 4,
      "max": [
        -0.17062123119831085,
        -0.984669029712677,
        0.0012833699584007263
      ],
      "min": [
        -0.1744283139705658,
        -0.9853358864784241,
        -0.001305311918258667
      ],
      "type": "VEC3"
    },
    {
      "bufferView": 1,
      "byteOffset": 37952,
      "componentType": 5126,
      "count": 4,
      "max": [
        0.9319339394569397,
        0.6934112906455994
      ],
      "min": [
        0.7966709136962891,
        0.40834689140319824
      ],
      "type": "VEC2"
    },
    {
      "bufferView": 0,
      "byteOffset": 12804,
      "componentType": 5125,
      "count": 6,
      "type": "SCALAR"
    },
    {
      "bufferView": 2,
      "byteOffset": 32160,
      "componentType": 5126,
      "count": 42,
      "max": [
        0.8231884241104126,
        0.048316895961761475,
        1.8310647010803223
      ],
      "min": [
        -0.866876482963562,
        -0.38749513030052185,
        -1.8310649394989014
      ],
      "type": "VEC3"
    },
    {
      "bufferView": 2,
      "byteOffset": 32664,
      "componentType": 5126,
      "count": 42,
      "max": [
        0.9999983310699463,
        2.0667912394856103e-05,
        0.9999982118606567
      ],
      "min": [
        -0.9999983906745911,
        -1.0,
        -0.9999982714653015
      ],
      "type": "VEC3"
    },
    {
      "bufferView": 3,
      "byteOffset": 18176,
      "componentType": 5126,
      "count": 42,
      "max": [
        0.3308854401111603,
        1.0,
        0.9533448815345764,
        1.0
      ],
      "min": [
        -1.0,
        -1.0,
        -0.9946779608726501,
        1.0
      ],
      "type": "VEC4"
    },
    {
      "bufferView": 1,
      "byteOffset": 37984,
      "componentType": 5126,
      "count": 42,
      "max": [
        0.6296737194061279,
        0.8305468559265137
      ],
      "min": [
        0.24284206330776215,
        0.4118928611278534
      ],
      "type": "VEC2"
    },
    {
      "bufferView": 1,
      "byteOffset": 38320,
      "componentType": 5126,
      "count": 42,
      "max": [
        0.6296737194061279,
        0.8305468559265137
      ],
      "min": [
        0.24284206330776215,
        0.4118928611278534
      ],
      "type": "VEC2"
    },
    {
      "bufferView": 1,
      "byteOffset": 38656,
      "componentType": 5126,
      "count": 42,
      "max": [
        0.6296737194061279,
        0.8305468559265137
      ],
      "min": [
        0.24284206330776215,
        0.4118928611278534
      ],
      "type": "VEC2"
    },
    {
      "bufferView": 1,
      "byteOffset": 38992,
      "componentType": 5126,
      "count": 42,
      "max": [
        0.6296737194061279,
        0.8305468559265137
      ],
      "min": [
        0.24284206330776215,
        0.4118928611278534
      ],
      "type": "VEC2"
    },
    {
      "bufferView": 0,
      "byteOffset": 12828,
      "componentType": 5125,
      "count": 108,
      "type": "SCALAR"
    },
    {
      "bufferView": 2,
      "byteOffset": 33168,
      "componentType": 5126,
      "count": 123,
      "max": [
        0.30366557836532593,
        0.36298316717147827,
        0.015892505645751953
      ],
      "min": [
        -0.30448466539382935,
        -0.36298316717147827,
        -0.010673999786376953
      ],
      "type": "VEC3"
    },
    {
      "bufferView": 2,
      "byteOffset": 34644,
      "componentType": 5126,
      "count": 123,
      "max": [
        1.0,
        1.0,
        0.00021980376914143562
      ],
      "min": [
        -1.0,
        -1.0,
        -1.0
      ],
      "type": "VEC3"
    },
    {
      "bufferView": 3,
      "byteOffset": 18848,
      "componentType": 5126,
      "count": 123,
      "max": [
        0.021588042378425598,
        0.0003754283825401217,
        1.0,
        1.0
      ],
      "min": [
        -1.0,
        -0.00039263072540052235,
        -1.0,
        1.0
      ],
      "type": "VEC4"
    },
    {
      "bufferView": 1,
      "byteOffset": 39328,
      "componentType": 5126,
      "count": 123,
      "max": [
        0.9913142919540405,
        0.9821017980575562
      ],
      "min": [
        0.3696078956127167,
        0.11543390154838562
      ],
      "type": "VEC2"
    },
    {
      "bufferView": 1,
      "byteOffset": 40312,
      "componentType": 5126,
      "count": 123,
      "max": [
        0.9913142919540405,
        0.9821017980575562
      ],
      "min": [
        0.3696078956127167,
        0.11543390154838562
      ],
      "type": "VEC2"
    },
    {
      "bufferView": 1,
      "byteOffset": 41296,
      "componentType": 5126,
      "count": 123,
      "max": [
        0.9913142919540405,
        0.9821017980575562
      ],
      "min": [
        0.3696078956127167,
        0.11543390154838562
      ],
      "type": "VEC2"
    },
    {
      "bufferView": 1,
      "byteOffset": 42280,
      "componentType": 5126,
      "count": 123,
      "max": [
        0.9913142919540405,
        0.9821017980575562
      ],
      "min": [
        0.3696078956127167,
        0.11543390154838562
      ],
      "type": "VEC2"
    },
    {
      "bufferView": 0,
      "byteOffset": 13260,
      "componentType": 5125,
      "count": 237,
      "type": "SCALAR"
    },
    {
      "bufferView": 2,
      "byteOffset": 36120,
      "componentType": 5126,
      "count": 106,
      "max": [
        0.30366551876068115,
        0.36298319697380066,
        0.015892505645751953
      ],
      "min": [
        -0.3036654591560364,
        -0.36298316717147827,
        -0.010674238204956055
      ],
      "type": "VEC3"
    },
    {
      "bufferView": 2,
      "byteOffset": 37392,
      "componentType": 5126,
      "count": 106,
      "max": [
        1.0,
        1.0,
        1.0
      ],
      "min": [
        -1.0,
        -1.0,
        -1.005695704492382e-08
      ],
      "type": "VEC3"
    },
    {
      "bufferView": 3,
      "byteOffset": 20816,
      "componentType": 5126,
      "count": 106,
      "max": [
        1.0,
        0.00011649032239802182,
        1.0,
        1.0
      ],
      "min": [
        -9.245683827430184e-07,
        -0.0001255343813681975,
        -1.0,
        1.0
      ],
      "type": "VEC4"
    },
    {
      "bufferView": 1,
      "byteOffset": 43264,
      "componentType": 5126,
      "count": 106,
      "max": [
        0.9844365119934082,
        0.9912168979644775
      ],
      "min": [
        0.23923343420028687,
        0.0679042711853981
      ],
      "type": "VEC2"
    },
    {
      "bufferView": 1,
      "byteOffset": 44112,
      "componentType": 5126,
      "count": 106,
      "max": [
        0.9844365119934082,
        0.9912168979644775
      ],
      "min": [
        0.23923343420028687,
        0.0679042711853981
      ],
      "type": "VEC2"
    },
    {
      "bufferView": 1,
      "byteOffset": 44960,
      "componentType": 5126,
      "count": 106,
      "max": [
        0.9844365119934082,
        0.9912168979644775
      ],
      "min": [
        0.23923343420028687,
        0.0679042711853981
      ],
      "type": "VEC2"
    },
    {
      "bufferView": 1,
      "byteOffset": 45808,
      "componentType": 5126,
      "count": 106,
      "max": [
        0.9844365119934082,
        0.9912168979644775
      ],
      "min": [
        0.23923343420028687,
        0.0679042711853981
      ],
      "type": "VEC2"
    },
    {
      "bufferView": 0,
      "byteOffset": 14208,
      "componentType": 5125,
      "count": 192,
      "type": "SCALAR"
    },
    {
      "bufferView": 2,
      "byteOffset": 38664,
      "componentType": 5126,
      "count": 245,
      "max": [
        1.484911322593689,
        0.38303160667419434,
        0.015892505645751953
      ],
      "min": [
        -0.3036656379699707,
        -0.3629831075668335,
        -0.010674238204956055
      ],
      "type": "VEC3"
    },
    {
      "bufferView": 2,
      "byteOffset": 41604,
      "componentType": 5126,
      "count": 245,
      "max": [
        1.0,
        1.0,
        1.0
      ],
      "min": [
        -1.0,
        -1.0,
        -0.0004906657268293202
      ],
      "type": "VEC3"
    },
    {
      "bufferView": 3,
      "byteOffset": 22512,
      "componentType": 5126,
      "count": 245,
      "max": [
        0.0076370807364583015,
        1.0,
        1.0,
        1.0
      ],
      "min": [
        -0.2380683571100235,
        -1.0,
        -1.0,
        1.0
      ],
      "type": "VEC4"
    },
    {
      "bufferView": 1,
      "byteOffset": 46656,
      "componentType": 5126,
      "count": 245,
      "max": [
        0.9844546318054199,
        0.9834437966346741
      ],
      "min": [
        0.23626625537872314,
        0.0008586604963056743
      ],
      "type": "VEC2"
    },
    {
      "bufferView": 1,
      "byteOffset": 48616,
      "componentType": 5126,
      "count": 245,
      "max": [
        0.9844546318054199,
        0.9834437966346741
      ],
      "min": [
        0.23626625537872314,
        0.0008586604963056743
      ],
      "type": "VEC2"
    },
    {
      "bufferView": 1,
      "byteOffset": 50576,
      "componentType": 5126,
      "count": 245,
      "max": [
        0.9844546318054199,
        0.9834437966346741
      ],
      "min": [
        0.23626625537872314,
        0.0008586604963056743
      ],
      "type": "VEC2"
    },
    {
      "bufferView": 1,
      "byteOffset": 52536,
      "componentType": 5126,
      "count": 245,
      "max": [
        0.9844546318054199,
        0.9834437966346741
      ],
      "min": [
        0.23626625537872314,
        0.0008586604963056743
      ],
      "type": "VEC2"
    },
    {
      "bufferView": 0,
      "byteOffset": 14976,
      "componentType": 5125,
      "count": 501,
      "type": "SCALAR"
    },
    {
      "bufferView": 2,
      "byteOffset": 44544,
      "componentType": 5126,
      "count": 118,
      "max": [
        0.7989555597305298,
        0.38303160667419434,
        0.015892982482910156
      ],
      "min": [
        -0.30366557836532593,
        -0.36298316717147827,
        -0.010673999786376953
      ],
      "type": "VEC3"
    },
    {
      "bufferView": 2,
      "byteOffset": 45960,
      "componentType": 5126,
      "count": 118,
      "max": [
        1.0,
        1.0,
        1.0
      ],
      "min": [
        -1.0,
        -1.0,
        -5.291860247780278e-07
      ],
      "type": "VEC3"
    },
    {
      "bufferView": 3,
      "byteOffset": 26432,
      "componentType": 5126,
      "count": 118,
      "max": [
        5.966408207314089e-05,
        1.1023830666090362e-06,
        1.0,
        1.0
      ],
      "min": [
        -6.201124051585793e-05,
        -1.0,
        -1.0,
        1.0
      ],
      "type": "VEC4"
    },
    {
      "bufferView": 1,
      "byteOffset": 54496,
      "componentType": 5126,
      "count": 118,
      "max": [
        0.9845579862594604,
        0.9546623826026917
      ],
      "min": [
        0.22141817212104797,
        0.03453097119927406
      ],
      "type": "VEC2"
    },
    {
      "bufferView": 1,
      "byteOffset": 55440,
      "componentType": 5126,
      "count": 118,
      "max": [
        0.9845579862594604,
        0.9546623826026917
      ],
      "min": [
        0.22141817212104797,
        0.03453097119927406
      ],
      "type": "VEC2"
    },
    {
      "bufferView": 1,
      "byteOffset": 56384,
      "componentType": 5126,
      "count": 118,
      "max": [
        0.9845579862594604,
        0.9546623826026917
      ],
      "min": [
        0.22141817212104797,
        0.03453097119927406
      ],
      "type": "VEC2"
    },
    {
      "bufferView": 1,
      "byteOffset": 57328,
      "componentType": 5126,
      "count": 118,
      "max": [
        0.9845579862594604,
        0.9546623826026917
      ],
      "min": [
        0.22141817212104797,
        0.03453097119927406
      ],
      "type": "VEC2"
    },
    {
      "bufferView": 0,
      "byteOffset": 16980,
      "componentType": 5125,
      "count": 252,
      "type": "SCALAR"
    },
    {
      "bufferView": 2,
      "byteOffset": 47376,
      "componentType": 5126,
      "count": 40,
      "max": [
        0.12108105421066284,
        1.4901161193847656e-08,
        0.28198298811912537
      ],
      "min": [
        -0.12108105421066284,
        -0.014878466725349426,
        -0.2819828689098358
      ],
      "type": "VEC3"
    },
    {
      "bufferView": 2,
      "byteOffset": 47856,
      "componentType": 5126,
      "count": 40,
      "max": [
        1.0,
        0.00021980376914143562,
        1.0
      ],
      "min": [
        -1.0,
        -1.0,
        -1.0
      ],
      "type": "VEC3"
    },
    {
      "bufferView": 3,
      "byteOffset": 28320,
      "componentType": 5126,
      "count": 40,
      "max": [
        0.0,
        1.0,
        2.473738459229935e-05,
        1.0
      ],
      "min": [
        -1.0,
        -1.0,
        -0.00021980379824526608,
        1.0
      ],
      "type": "VEC4"
    },
    {
      "bufferView": 1,
      "byteOffset": 58272,
      "componentType": 5126,
      "count": 40,
      "max": [
        0.9847593903541565,
        0.8983586430549622
      ],
      "min": [
        0.23998485505580902,
        0.0679042786359787
      ],
      "type": "VEC2"
    },
    {
      "bufferView": 1,
      "byteOffset": 58592,
      "componentType": 5126,
      "count": 40,
      "max": [
        0.9847593903541565,
        0.8983586430549622
      ],
      "min": [
        0.23998485505580902,
        0.0679042786359787
      ],
      "type": "VEC2"
    },
    {
      "bufferView": 1,
      "byteOffset": 58912,
      "componentType": 5126,
      "count": 40,
      "max": [
        0.9847593903541565,
        0.8983586430549622
      ],
      "min": [
        0.23998485505580902,
        0.0679042786359787
      ],
      "type": "VEC2"
    },
    {
      "bufferView": 1,
      "byteOffset": 59232,
      "componentType": 5126,
      "count": 40,
      "max": [
        0.9847593903541565,
        0.8983586430549622
      ],
      "min": [
        0.23998485505580902,
        0.0679042786359787
      ],
      "type": "VEC2"
    },
    {
      "bufferView": 0,
      "byteOffset": 17988,
      "componentType": 5125,
      "count": 72,
      "type": "SCALAR"
    },
    {
      "bufferView": 2,
      "byteOffset": 48336,
      "componentType": 5126,
      "count": 40,
      "max": [
        0.12108135223388672,
        1.4901161193847656e-08,
        0.28198298811912537
      ],
      "min": [
        -0.23229503631591797,
        -0.014878466725349426,
        -0.2819828689098358
      ],
      "type": "VEC3"
    },
    {
      "bufferView": 2,
      "byteOffset": 48816,
      "componentType": 5126,
      "count": 40,
      "max": [
        1.0,
        0.0,
        1.0
      ],
      "min": [
        -1.0,
        -1.0,
        -1.0
      ],
      "type": "VEC3"
    },
    {
      "bufferView": 3,
      "byteOffset": 28960,
      "componentType": 5126,
      "count": 40,
      "max": [
        0.0,
        1.0,
        4.453686869965168e-06,
        1.0
      ],
      "min": [
        -1.0,
        -1.0,
        -4.620655090548098e-06,
        1.0
      ],
      "type": "VEC4"
    },
    {
      "bufferView": 1,
      "byteOffset": 59552,
      "componentType": 5126,
      "count": 40,
      "max": [
        0.8581041693687439,
        0.9846615195274353
      ],
      "min": [
        0.23998485505580902,
        0.4260205924510956
      ],
      "type": "VEC2"
    },
    {
      "bufferView": 1,
      "byteOffset": 59872,
      "componentType": 5126,
      "count": 40,
      "max": [
        0.8581041693687439,
        0.9846615195274353
      ],
      "min": [
        0.23998485505580902,
        0.4260205924510956
      ],
      "type": "VEC2"
    },
    {
      "bufferView": 1,
      "byteOffset": 60192,
      "componentType": 5126,
      "count": 40,
      "max": [
        0.8581041693687439,
        0.9846615195274353
      ],
      "min": [
        0.23998485505580902,
        0.4260205924510956
      ],
      "type": "VEC2"
    },
    {
      "bufferView": 1,
      "byteOffset": 60512,
      "componentType": 5126,
      "count": 40,
      "max": [
        0.8581041693687439,
        0.9846615195274353
      ],
      "min": [
        0.23998485505580902,
        0.4260205924510956
      ],
      "type": "VEC2"
    },
    {
      "bufferView": 0,
      "byteOffset": 18276,
      "componentType": 5125,
      "count": 72,
      "type": "SCALAR"
    },
    {
      "bufferView": 2,
      "byteOffset": 49296,
      "componentType": 5126,
      "count": 118,
      "max": [
        0.7989556193351746,
        0.38303160667419434,
        0.015893220901489258
      ],
      "min": [
        -0.3036656379699707,
        -0.36298316717147827,
        -0.010673761367797852
      ],
      "type": "VEC3"
    },
    {
      "bufferView": 2,
      "byteOffset": 50712,
      "componentType": 5126,
      "count": 118,
      "max": [
        1.0,
        1.0,
        1.0
      ],
      "min": [
        -1.0,
        -1.0,
        -0.0
      ],
      "type": "VEC3"
    },
    {
      "bufferView": 3,
      "byteOffset": 29600,
      "componentType": 5126,
      "count": 118,
      "max": [
        6.496090645669028e-05,
        1.102382725548523e-06,
        1.0,
        1.0
      ],
      "min": [
        -5.7556680985726416e-05,
        -1.0,
        -1.0,
        1.0
      ],
      "type": "VEC4"
    },
    {
      "bufferView": 1,
      "byteOffset": 60832,
      "componentType": 5126,
      "count": 118,
      "max": [
        0.9840245246887207,
        0.9021498560905457
      ],
      "min": [
        0.23254765570163727,
        0.26945117115974426
      ],
      "type": "VEC2"
    },
    {
      "bufferView": 1,
      "byteOffset": 61776,
      "componentType": 5126,
      "count": 118,
      "max": [
        0.9840245246887207,
        0.9021498560905457
      ],
      "min": [
        0.23254765570163727,
        0.26945117115974426
      ],
      "type": "VEC2"
    },
    {
      "bufferView": 1,
      "byteOffset": 62720,
      "componentType": 5126,
      "count": 118,
      "max": [
        0.9840245246887207,
        0.9021498560905457
      ],
      "min": [
        0.23254765570163727,
        0.26945117115974426
      ],
      "type": "VEC2"
    },
    {
      "bufferView": 1,
      "byteOffset": 63664,
      "componentType": 5126,
      "count": 118,
      "max": [
        0.9840245246887207,
        0.9021498560905457
      ],
      "min": [
        0.23254765570163727,
        0.26945117115974426
      ],
      "type": "VEC2"
    },
    {
      "bufferView": 0,
      "byteOffset": 18564,
      "componentType": 5125,
      "count": 252,
      "type": "SCALAR"
    },
    {
      "bufferView": 2,
      "byteOffset": 52128,
      "componentType": 5126,
      "count": 118,
      "max": [
        0.7989556789398193,
        0.38303154706954956,
        0.015892982482910156
      ],
      "min": [
        -0.3036656379699707,
        -0.36298322677612305,
        -0.010673999786376953
      ],
      "type": "VEC3"
    },
    {
      "bufferView": 2,
      "byteOffset": 53544,
      "componentType": 5126,
      "count": 118,
      "max": [
        1.0,
        1.0,
        1.0
      ],
      "min": [
        -1.0,
        -1.0,
        -0.0
      ],
      "type": "VEC3"
    },
    {
      "bufferView": 3,
      "byteOffset": 31488,
      "componentType": 5126,
      "count": 118,
      "max": [
        6.364281580317765e-05,
        1.1023828392353607e-06,
        1.0,
        1.0
      ],
      "min": [
        -5.94845914747566e-05,
        -1.0,
        -1.0,
        1.0
      ],
      "type": "VEC4"
    },
    {
      "bufferView": 1,
      "byteOffset": 64608,
      "componentType": 5126,
      "count": 118,
      "max": [
        0.9840245246887207,
        0.9838612675666809
      ],
      "min": [
        0.2251104712486267,
        0.0008586582844145596
      ],
      "type": "VEC2"
    },
    {
      "bufferView": 1,
      "byteOffset": 65552,
      "componentType": 5126,
      "count": 118,
      "max": [
        0.9840245246887207,
        0.9838612675666809
      ],
      "min": [
        0.2251104712486267,
        0.0008586582844145596
      ],
      "type": "VEC2"
    },
    {
      "bufferView": 1,
      "byteOffset": 66496,
      "componentType": 5126,
      "count": 118,
      "max": [
        0.9840245246887207,
        0.9838612675666809
      ],
      "min": [
        0.2251104712486267,
        0.0008586582844145596
      ],
      "type": "VEC2"
    },
    {
      "bufferView": 1,
      "byteOffset": 67440,
      "componentType": 5126,
      "count": 118,
      "max": [
        0.9840245246887207,
        0.9838612675666809
      ],
      "min": [
        0.2251104712486267,
        0.0008586582844145596
      ],
      "type": "VEC2"
    },
    {
      "bufferView": 0,
      "byteOffset": 19572,
      "componentType": 5125,
      "count": 252,
      "type": "SCALAR"
    },
    {
      "bufferView": 2,
      "byteOffset": 54960,
      "componentType": 5126,
      "count": 127,
      "max": [
        0.30366554856300354,
        0.36298325657844543,
        0.01589280366897583
      ],
      "min": [
        -0.30448466539382935,
        -0.3629831075668335,
        -0.010673880577087402
      ],
      "type": "VEC3"
    },
    {
      "bufferView": 2,
      "byteOffset": 56484,
      "componentType": 5126,
      "count": 127,
      "max": [
        1.0,
        1.0,
        0.0002193575055571273
      ],
      "min": [
        -1.0,
        -1.0,
        -1.0
      ],
      "type": "VEC3"
    },
    {
      "bufferView": 3,
      "byteOffset": 33376,
      "componentType": 5126,
      "count": 127,
      "max": [
        1.0,
        0.00012532521213870496,
        1.0,
        1.0
      ],
      "min": [
        -1.0,
        -0.00037196752964518964,
        -1.0,
        -1.0
      ],
      "type": "VEC4"
    },
    {
      "bufferView": 1,
      "byteOffset": 68384,
      "componentType": 5126,
      "count": 127,
      "max": [
        0.9836727976799011,
        0.9915533661842346
      ],
      "min": [
        0.24284207820892334,
        0.03453097492456436
      ],
      "type": "VEC2"
    },
    {
      "bufferView": 1,
      "byteOffset": 69400,
      "componentType": 5126,
      "count": 127,
      "max": [
        0.9836727976799011,
        0.9915533661842346
      ],
      "min": [
        0.24284207820892334,
        0.03453097492456436
      ],
      "type": "VEC2"
    },
    {
      "bufferView": 1,
      "byteOffset": 70416,
      "componentType": 5126,
      "count": 127,
      "max": [
        0.9836727976799011,
        0.9915533661842346
      ],
      "min": [
        0.24284207820892334,
        0.03453097492456436
      ],
      "type": "VEC2"
    },
    {
      "bufferView": 1,
      "byteOffset": 71432,
      "componentType": 5126,
      "count": 127,
      "max": [
        0.9836727976799011,
        0.9915533661842346
      ],
      "min": [
        0.24284207820892334,
        0.03453097492456436
      ],
      "type": "VEC2"
    },
    {
      "bufferView": 0,
      "byteOffset": 20580,
      "componentType": 5125,
      "count": 249,
      "type": "SCALAR"
    },
    {
      "bufferView": 2,
      "byteOffset": 58008,
      "componentType": 5126,
      "count": 109,
      "max": [
        0.3036654591560364,
        0.36298322677612305,
        0.015892744064331055
      ],
      "min": [
        -0.30366548895835876,
        -0.36298316717147827,
        -0.010673761367797852
      ],
      "type": "VEC3"
    },
    {
      "bufferView": 2,
      "byteOffset": 59316,
      "componentType": 5126,
      "count": 109,
      "max": [
        1.0,
        1.0,
        1.0
      ],
      "min": [
        -1.0,
        -1.0,
        -2.4623966510262107e-06
      ],
      "type": "VEC3"
    },
    {
      "bufferView": 3,
      "byteOffset": 35408,
      "componentType": 5126,
      "count": 109,
      "max": [
        1.0,
        0.0001058198613463901,
        1.0,
        1.0
      ],
      "min": [
        -2.4623966510262107e-06,
        -0.00012149948452133685,
        -1.0,
        1.0
      ],
      "type": "VEC4"
    },
    {
      "bufferView": 1,
      "byteOffset": 72448,
      "componentType": 5126,
      "count": 109,
      "max": [
        0.9897618293762207,
        0.9831057190895081
      ],
      "min": [
        0.03816823288798332,
        0.04470864683389664
      ],
      "type": "VEC2"
    },
    {
      "bufferView": 1,
      "byteOffset": 73320,
      "componentType": 5126,
      "count": 109,
      "max": [
        0.9897618293762207,
        0.9831057190895081
      ],
      "min": [
        0.03816823288798332,
        0.04470864683389664
      ],
      "type": "VEC2"
    },
    {
      "bufferView": 1,
      "byteOffset": 74192,
      "componentType": 5126,
      "count": 109,
      "max": [
        0.9897618293762207,
        0.9831057190895081
      ],
      "min": [
        0.03816823288798332,
        0.04470864683389664
      ],
      "type": "VEC2"
    },
    {
      "bufferView": 1,
      "byteOffset": 75064,
      "componentType": 5126,
      "count": 109,
      "max": [
        0.9897618293762207,
        0.9831057190895081
      ],
      "min": [
        0.03816823288798332,
        0.04470864683389664
      ],
      "type": "VEC2"
    },
    {
      "bufferView": 0,
      "byteOffset": 21576,
      "componentType": 5125,
      "count": 201,
      "type": "SCALAR"
    },
    {
      "bufferView": 2,
      "byteOffset": 60624,
      "componentType": 5126,
      "count": 4,
      "max": [
        0.30506908893585205,
        0.0,
        0.3785976469516754
      ],
      "min": [
        -0.30506908893585205,
        0.0,
        -0.3785976469516754
      ],
      "type": "VEC3"
    },
    {
      "bufferView": 2,
      "byteOffset": 60672,
      "componentType": 5126,
      "count": 4,
      "max": [
        0.0,
        1.0,
        -0.0
      ],
      "min": [
        0.0,
        1.0,
        -0.0
      ],
      "type": "VEC3"
    },
    {
      "bufferView": 1,
      "byteOffset": 75936,
      "componentType": 5126,
      "count": 4,
      "max": [
        1.0,
        1.0
      ],
      "min": [
        0.0,
        0.0
      ],
      "type": "VEC2"
    },
    {
      "bufferView": 0,
      "byteOffset": 22380,
      "componentType": 5125,
      "count": 6,
      "type": "SCALAR"
    },
    {
      "bufferView": 2,
      "byteOffset": 60720,
      "componentType": 5126,
      "count": 4,
      "max": [
        0.30506908893585205,
        0.0,
        0.3785976469516754
      ],
      "min": [
        -0.30506908893585205,
        0.0,
        -0.3785976469516754
      ],
      "type": "VEC3"
    },
    {
      "bufferView": 2,
      "byteOffset": 60768,
      "componentType": 5126,
      "count": 4,
      "max": [
        0.0,
        1.0,
        -0.0
      ],
      "min": [
        0.0,
        1.0,
        -0.0
      ],
      "type": "VEC3"
    },
    {
      "bufferView": 1,
      "byteOffset": 75968,
      "componentType": 5126,
      "count": 4,
      "max": [
        1.0,
        1.0
      ],
      "min": [
        0.0,
        0.0
      ],
      "type": "VEC2"
    },
    {
      "bufferView": 0,
      "byteOffset": 22404,
      "componentType": 5125,
      "count": 6,
      "type": "SCALAR"
    },
    {
      "bufferView": 2,
      "byteOffset": 60816,
      "componentType": 5126,
      "count": 4,
      "max": [
        0.30506908893585205,
        0.0,
        0.3785976469516754
      ],
      "min": [
        -0.30506908893585205,
        0.0,
        -0.3785976469516754
      ],
      "type": "VEC3"
    },
    {
      "bufferView": 2,
      "byteOffset": 60864,
      "componentType": 5126,
      "count": 4,
      "max": [
        0.0,
        1.0,
        -0.0
      ],
      "min": [
        0.0,
        1.0,
        -0.0
      ],
      "type": "VEC3"
    },
    {
      "bufferView": 1,
      "byteOffset": 76000,
      "componentType": 5126,
      "count": 4,
      "max": [
        1.0,
        1.0
      ],
      "min": [
        0.0,
        0.0
      ],
      "type": "VEC2"
    },
    {
      "bufferView": 0,
      "byteOffset": 22428,
      "componentType": 5125,
      "count": 6,
      "type": "SCALAR"
    },
    {
      "bufferView": 2,
      "byteOffset": 60912,
      "componentType": 5126,
      "count": 4,
      "max": [
        0.30506908893585205,
        0.0,
        0.3785976469516754
      ],
      "min": [
        -0.30506908893585205,
        0.0,
        -0.3785976469516754
      ],
      "type": "VEC3"
    },
    {
      "bufferView": 2,
      "byteOffset": 60960,
      "componentType": 5126,
      "count": 4,
      "max": [
        0.0,
        1.0,
        -0.0
      ],
      "min": [
        0.0,
        1.0,
        -0.0
      ],
      "type": "VEC3"
    },
    {
      "bufferView": 1,
      "byteOffset": 76032,
      "componentType": 5126,
      "count": 4,
      "max": [
        1.0,
        1.0
      ],
      "min": [
        0.0,
        0.0
      ],
      "type": "VEC2"
    },
    {
      "bufferView": 0,
      "byteOffset": 22452,
      "componentType": 5125,
      "count": 6,
      "type": "SCALAR"
    },
    {
      "bufferView": 2,
      "byteOffset": 61008,
      "componentType": 5126,
      "count": 4,
      "max": [
        1.0,
        0.0,
        1.0
      ],
      "min": [
        -1.0,
        0.0,
        -1.0
      ],
      "type": "VEC3"
    },
    {
      "bufferView": 2,
      "byteOffset": 61056,
      "componentType": 5126,
      "count": 4,
      "max": [
        0.0,
        1.0,
        -0.0
      ],
      "min": [
        0.0,
        1.0,
        -0.0
      ],
      "type": "VEC3"
    },
    {
      "bufferView": 1,
      "byteOffset": 76064,
      "componentType": 5126,
      "count": 4,
      "max": [
        1.0,
        1.0
      ],
      "min": [
        0.0,
        0.0
      ],
      "type": "VEC2"
    },
    {
      "bufferView": 0,
      "byteOffset": 22476,
      "componentType": 5125,
      "count": 6,
      "type": "SCALAR"
    },
    {
      "bufferView": 2,
      "byteOffset": 61104,
      "componentType": 5126,
      "count": 4,
      "max": [
        1.0,
        0.0,
        1.0
      ],
      "min": [
        -1.0,
        0.0,
        -1.0
      ],
      "type": "VEC3"
    },
    {
      "bufferView": 2,
      "byteOffset": 61152,
      "componentType": 5126,
      "count": 4,
      "max": [
        0.0,
        1.0,
        -0.0
      ],
      "min": [
        0.0,
        1.0,
        -0.0
      ],
      "type": "VEC3"
    },
    {
      "bufferView": 1,
      "byteOffset": 76096,
      "componentType": 5126,
      "count": 4,
      "max": [
        1.0,
        1.0
      ],
      "min": [
        0.0,
        0.0
      ],
      "type": "VEC2"
    },
    {
      "bufferView": 0,
      "byteOffset": 22500,
      "componentType": 5125,
      "count": 6,
      "type": "SCALAR"
    },
    {
      "bufferView": 2,
      "byteOffset": 61200,
      "componentType": 5126,
      "count": 4,
      "max": [
        0.2591536045074463,
        0.0,
        0.41100287437438965
      ],
      "min": [
        -0.2591536045074463,
        0.0,
        -0.41100287437438965
      ],
      "type": "VEC3"
    },
    {
      "bufferView": 2,
      "byteOffset": 61248,
      "componentType": 5126,
      "count": 4,
      "max": [
        0.0,
        1.0,
        -0.0
      ],
      "min": [
        0.0,
        1.0,
        -0.0
      ],
      "type": "VEC3"
    },
    {
      "bufferView": 1,
      "byteOffset": 76128,
      "componentType": 5126,
      "count": 4,
      "max": [
        1.0,
        1.0
      ],
      "min": [
        0.0,
        0.0
      ],
      "type": "VEC2"
    },
    {
      "bufferView": 0,
      "byteOffset": 22524,
      "componentType": 5125,
      "count": 6,
      "type": "SCALAR"
    },
    {
      "bufferView": 2,
      "byteOffset": 61296,
      "componentType": 5126,
      "count": 4,
      "max": [
        0.2591536045074463,
        0.0,
        0.41100287437438965
      ],
      "min": [
        -0.2591536045074463,
        0.0,
        -0.41100287437438965
      ],
      "type": "VEC3"
    },
    {
      "bufferView": 2,
      "byteOffset": 61344,
      "componentType": 5126,
      "count": 4,
      "max": [
        0.0,
        1.0,
        -0.0
      ],
      "min": [
        0.0,
        1.0,
        -0.0
      ],
      "type": "VEC3"
    },
    {
      "bufferView": 1,
      "byteOffset": 76160,
      "componentType": 5126,
      "count": 4,
      "max": [
        1.0,
        1.0
      ],
      "min": [
        0.0,
        0.0
      ],
      "type": "VEC2"
    },
    {
      "bufferView": 0,
      "byteOffset": 22548,
      "componentType": 5125,
      "count": 6,
      "type": "SCALAR"
    },
    {
      "bufferView": 2,
      "byteOffset": 61392,
      "componentType": 5126,
      "count": 4,
      "max": [
        0.2591536045074463,
        0.0,
        0.41100287437438965
      ],
      "min": [
        -0.2591536045074463,
        0.0,
        -0.41100287437438965
      ],
      "type": "VEC3"
    },
    {
      "bufferView": 2,
      "byteOffset": 61440,
      "componentType": 5126,
      "count": 4,
      "max": [
        0.0,
        1.0,
        -0.0
      ],
      "min": [
        0.0,
        1.0,
        -0.0
      ],
      "type": "VEC3"
    },
    {
      "bufferView": 1,
      "byteOffset": 76192,
      "componentType": 5126,
      "count": 4,
      "max": [
        1.0,
        1.0
      ],
      "min": [
        0.0,
        0.0
      ],
      "type": "VEC2"
    },
    {
      "bufferView": 0,
      "byteOffset": 22572,
      "componentType": 5125,
      "count": 6,
      "type": "SCALAR"
    },
    {
      "bufferView": 2,
      "byteOffset": 61488,
      "componentType": 5126,
      "count": 4,
      "max": [
        0.6570734977722168,
        0.0,
        0.26487743854522705
      ],
      "min": [
        -0.6570734977722168,
        0.0,
        -0.26487743854522705
      ],
      "type": "VEC3"
    },
    {
      "bufferView": 2,
      "byteOffset": 61536,
      "componentType": 5126,
      "count": 4,
      "max": [
        0.0,
        1.0,
        -0.0
      ],
      "min": [
        0.0,
        1.0,
        -0.0
      ],
      "type": "VEC3"
    },
    {
      "bufferView": 1,
      "byteOffset": 76224,
      "componentType": 5126,
      "count": 4,
      "max": [
        1.0,
        1.0
      ],
      "min": [
        0.0,
        0.0
      ],
      "type": "VEC2"
    },
    {
      "bufferView": 0,
      "byteOffset": 22596,
      "componentType": 5125,
      "count": 6,
      "type": "SCALAR"
    },
    {
      "bufferView": 2,
      "byteOffset": 61584,
      "componentType": 5126,
      "count": 4,
      "max": [
        1.0,
        0.0,
        1.0
      ],
      "min": [
        -1.0,
        0.0,
        -1.0
      ],
      "type": "VEC3"
    },
    {
      "bufferView": 2,
      "byteOffset": 61632,
      "componentType": 5126,
      "count": 4,
      "max": [
        0.0,
        1.0,
        -0.0
      ],
      "min": [
        0.0,
        1.0,
        -0.0
      ],
      "type": "VEC3"
    },
    {
      "bufferView": 1,
      "byteOffset": 76256,
      "componentType": 5126,
      "count": 4,
      "max": [
        1.0,
        1.0
      ],
      "min": [
        0.0,
        0.0
      ],
      "type": "VEC2"
    },
    {
      "bufferView": 0,
      "byteOffset": 22620,
      "componentType": 5125,
      "count": 6,
      "type": "SCALAR"
    },
    {
      "bufferView": 2,
      "byteOffset": 61680,
      "componentType": 5126,
      "count": 4,
      "max": [
        1.0,
        0.0,
        1.0
      ],
      "min": [
        -1.0,
        0.0,
        -1.0
      ],
      "type": "VEC3"
    },
    {
      "bufferView": 2,
      "byteOffset": 61728,
      "componentType": 5126,
      "count": 4,
      "max": [
        0.0,
        1.0,
        -0.0
      ],
      "min": [
        0.0,
        1.0,
        -0.0
      ],
      "type": "VEC3"
    },
    {
      "bufferView": 1,
      "byteOffset": 76288,
      "componentType": 5126,
      "count": 4,
      "max": [
        1.0,
        1.0
      ],
      "min": [
        0.0,
        0.0
      ],
      "type": "VEC2"
    },
    {
      "bufferView": 0,
      "byteOffset": 22644,
      "componentType": 5125,
      "count": 6,
      "type": "SCALAR"
    }
  ],
  "asset": {
    "extras": {
      "author": "Vitalii.Sandula (https://sketchfab.com/Vitalii.Sandula)",
      "license": "CC-BY-4.0 (http://creativecommons.org/licenses/by/4.0/)",
      "source": "https://sketchfab.com/3d-models/low-poly-brick-house-ea82ea891829493aadeea889cd473e89",
      "title": "Low-poly Brick House"
    },
    "generator": "Sketchfab-16.65.0",
    "version": "2.0"
  },
  "bufferViews": [
    {
      "buffer": 0,
      "byteLength": 22668,
      "name": "floatBufferViews",
      "target": 34963
    },
    {
      "buffer": 0,
      "byteLength": 76320,
      "byteOffset": 22668,
      "byteStride": 8,
      "name": "floatBufferViews",
      "target": 34962
    },
    {
      "buffer": 0,
      "byteLength": 61776,
      "byteOffset": 98988,
      "byteStride": 12,
      "name": "floatBufferViews",
      "target": 34962
    },
    {
      "buffer": 0,
      "byteLength": 37152,
      "byteOffset": 160764,
      "byteStride": 16,
      "name": "floatBufferViews",
      "target": 34962
    }
  ],
  "buffers": [
    {
      "byteLength": 197916,
      "uri": "scene.bin"
    }
  ],
  "extensionsUsed": [
    "KHR_texture_transform"
  ],
  "images": [
    {
      "uri": "textures/checker_map_gravity_baseColor.dds"
    },
    {
      "uri": "textures/checker_map_gravity_metallicRoughness.dds"
    },
    {
      "uri": "textures/checker_map_gravity_normal.dds"
    },
    {
      "uri": "textures/Material.002_baseColor.dds"
    },
    {
      "uri": "textures/Material.002_metallicRoughness.dds"
    },
    {
      "uri": "textures/Material.002_normal.dds"
    },
    {
      "uri": "textures/Material.006_baseColor.dds"
    },
    {
      "uri": "textures/Material.008_baseColor.dds"
    },
    {
      "uri": "textures/Material.011_baseColor.dds"
    },
    {
      "uri": "textures/Material.012_baseColor.dds"
    },
    {
      "uri": "textures/Material.010_baseColor.dds"
    },
    {
      "uri": "textures/Material.009_baseColor.dds"
    }
  ],
  "materials": [
    {
      "doubleSided": true,
      "name": "checker_map_gravity",
      "normalTexture": {
        "index": 2,
        "scale": 0.7,
        "texCoord": 2
      },
      "pbrMetallicRoughness": {
        "baseColorTexture": {
          "index": 0
        },
        "metallicRoughnessTexture": {
          "index": 1,
          "texCoord": 1
        }
      }
    },
    {
      "doubleSided": true,
      "name": "Material",
      "pbrMetallicRoughness": {
        "baseColorFactor": [
          0.8,
          0.8,
          0.8,
          1.0
        ],
        "roughnessFactor": 0.768182
      }
    },
    {
      "doubleSided": true,
      "name": "Material.007",
      "pbrMetallicRoughness": {
        "baseColorFactor": [
          0.0,
          0.0,
          0.0,
          1.0
        ],
        "metallicFactor": 0.0,
        "roughnessFactor": 0.5
      }
    },
    {
      "doubleSided": true,
      "name": "Material.002",
      "normalTexture": {
        "extensions": {
          "KHR_texture_transform": {
            "offset": [
              8.7,
              1
            ],
            "rotation": -1.5708,
            "scale": [
              -10.3,
              8.7
            ]
          }
        },
        "index": 5
      },
      "pbrMetallicRoughness": {
        "baseColorTexture": {
          "extensions": {
            "KHR_texture_transform": {
              "offset": [
                8.7,
                1
              ],
              "rotation": -1.5708,
              "scale": [
                -10.3,
                8.7
              ]
            }
          },
          "index": 3
        },
        "metallicFactor": 0.0,
        "metallicRoughnessTexture": {
          "extensions": {
            "KHR_texture_transform": {
              "offset": [
                8.7,
                1
              ],
              "rotation": -1.5708,
              "scale": [
                -10.3,
                8.7
              ]
            }
          },
          "index": 4
        }
      }
    },
    {
      "doubleSided": true,
      "name": "Material.003",
      "pbrMetallicRoughness": {
        "baseColorFactor": [
          0.00424172,
          0.0019037,
          0.00276262,
          1.0
        ],
        "metallicFactor": 0.0,
        "roughnessFactor": 0.805699
      }
    },
    {
      "doubleSided": true,
      "name": "Material.005",
      "pbrMetallicRoughness": {
        "baseColorFactor": [
          0.005580669999999999,
          0.0010142600000000001,
          0.0013420300000000003,
          1.0
        ],
        "metallicFactor": 0.0,
        "roughnessFactor": 0.5
      }
    },
    {
      "doubleSided": true,
      "name": "Material.006",
      "pbrMetallicRoughness": {
        "baseColorTexture": {
          "extensions": {
            "KHR_texture_transform": {
              "offset": [
                -8.74228e-08,
                2
              ],
              "rotation": -3.14159
            }
          },
          "index": 6
        },
        "metallicFactor": 0.0,
        "roughnessFactor": 0.0909091
      }
    },
    {
      "doubleSided": true,
      "name": "Material.008",
      "pbrMetallicRoughness": {
        "baseColorTexture": {
          "index": 7
        },
        "metallicFactor": 0.0,
        "roughnessFactor": 0.0
      }
    },
    {
      "doubleSided": true,
      "name": "Material.011",
      "pbrMetallicRoughness": {
        "baseColorTexture": {
          "index": 8
        },
        "metallicFactor": 0.0,
        "roughnessFactor": 0.0
      }
    },
    {
      "doubleSided": true,
      "name": "Material.012",
      "pbrMetallicRoughness": {
        "baseColorTexture": {
          "extensions": {
            "KHR_texture_transform": {
              "offset": [
                1,
                1
              ],
              "rotation": -1.5708
            }
          },
          "index": 9
        },
        "metallicFactor": 0.0,
        "roughnessFactor": 0.0
      }
    },
    {
      "doubleSided": true,
      "name": "Material.001",
      "pbrMetallicRoughness": {
        "baseColorTexture": {
          "index": 9
        },
        "metallicFactor": 0.0,
        "roughnessFactor": 0.0954546
      }
    },
    {
      "doubleSided": true,
      "name": "Material.010",
      "pbrMetallicRoughness": {
        "baseColorTexture": {
          "index": 10
        },
        "metallicFactor": 0.0,
        "roughnessFactor": 0.0
      }
    },
    {
      "doubleSided": true,
      "name": "Material.009",
      "pbrMetallicRoughness": {
        "baseColorTexture": {
          "index": 11
        },
        "metallicFactor": 0.0,
        "roughnessFactor": 0.0
      }
    }
  ],
  "meshes": [
    {
      "name": "Object_0",
      "primitives": [
        {
          "attributes": {
            "NORMAL": 1,
            "POSITION": 0,
            "TANGENT": 2,
            "TEXCOORD_0": 3,
            "TEXCOORD_1": 4,
            "TEXCOORD_2": 5,
            "TEXCOORD_3": 6
          },
          "indices": 7,
          "material": 0,
          "mode": 4
        }
      ]
    },
    {
      "name": "Object_1",
      "primitives": [
        {
          "attributes": {
            "NORMAL": 9,
            "POSITION": 8,
            "TANGENT": 10,
            "TEXCOORD_0": 11,
            "TEXCOORD_1": 12,
            "TEXCOORD_2": 13,
            "TEXCOORD_3": 14
          },
          "indices": 15,
          "material": 0,
          "mode": 4
        }
      ]
    },
    {
      "name": "Object_2",
      "primitives": [
        {
          "attributes": {
            "NORMAL": 17,
            "POSITION": 16,
            "TEXCOORD_0": 18
          },
          "indices": 19,
          "material": 1,
          "mode": 4
        }
      ]
    },
    {
      "name": "Object_3",
      "primitives": [
        {
          "attributes": {
            "NORMAL": 21,
            "POSITION": 20,
            "TANGENT": 22,
            "TEXCOORD_0": 23,
            "TEXCOORD_1": 24,
            "TEXCOORD_2": 25,
            "TEXCOORD_3": 26
          },
          "indices": 27,
          "material": 0,
          "mode": 4
        }
      ]
    },
    {
      "name": "Object_4",
      "primitives": [
        {
          "attributes": {
            "NORMAL": 29,
            "POSITION": 28,
            "TANGENT": 30,
            "TEXCOORD_0": 31,
            "TEXCOORD_1": 32,
            "TEXCOORD_2": 33,
            "TEXCOORD_3": 34
          },
          "indices": 35,
          "material": 0,
          "mode": 4
        }
      ]
    },
    {
      "name": "Object_5",
      "primitives": [
        {
          "attributes": {
            "NORMAL": 37,
            "POSITION": 36,
            "TEXCOORD_0": 38
          },
          "indices": 39,
          "material": 2,
          "mode": 4
        }
      ]
    },
    {
      "name": "Object_6",
      "primitives": [
        {
          "attributes": {
            "NORMAL": 41,
            "POSITION": 40,
            "TANGENT": 42,
            "TEXCOORD_0": 43,
            "TEXCOORD_1": 44,
            "TEXCOORD_2": 45,
            "TEXCOORD_3": 46
          },
          "indices": 47,
          "material": 0,
          "mode": 4
        }
      ]
    },
    {
      "name": "Object_7",
      "primitives": [
        {
          "attributes": {
            "NORMAL": 49,
            "POSITION": 48,
            "TANGENT": 50,
            "TEXCOORD_0": 51,
            "TEXCOORD_1": 52,
            "TEXCOORD_2": 53,
            "TEXCOORD_3": 54
          },
          "indices": 55,
          "material": 3,
          "mode": 4
        }
      ]
    },
    {
      "name": "Object_8",
      "primitives": [
        {
          "attributes": {
            "NORMAL": 57,
            "POSITION": 56,
            "TEXCOORD_0": 58
          },
          "indices": 59,
          "material": 4,
          "mode": 4
        }
      ]
    },
    {
      "name": "Object_9",
      "primitives": [
        {
          "attributes": {
            "NORMAL": 61,
            "POSITION": 60,
            "TANGENT": 62,
            "TEXCOORD_0": 63,
            "TEXCOORD_1": 64,
            "TEXCOORD_2": 65,
            "TEXCOORD_3": 66
          },
          "indices": 67,
          "material": 3,
          "mode": 4
        }
      ]
    },
    {
      "name": "Object_10",
      "primitives": [
        {
          "attributes": {
            "NORMAL": 69,
            "POSITION": 68,
            "TEXCOORD_0": 70
          },
          "indices": 71,
          "material": 5,
          "mode": 4
        }
      ]
    },
    {
      "name": "Object_11",
      "primitives": [
        {
          "attributes": {
            "NORMAL": 73,
            "POSITION": 72,
            "TANGENT": 74,
            "TEXCOORD_0": 75,
            "TEXCOORD_1": 76,
            "TEXCOORD_2": 77,
            "TEXCOORD_3": 78
          },
          "indices": 79,
          "material": 0,
          "mode": 4
        }
      ]
    },
    {
      "name": "Object_12",
      "primitives": [
        {
          "attributes": {
            "NORMAL": 81,
            "POSITION": 80,
            "TANGENT": 82,
            "TEXCOORD_0": 83,
            "TEXCOORD_1": 84,
            "TEXCOORD_2": 85,
            "TEXCOORD_3": 86
          },
          "indices": 87,
          "material": 0,
          "mode": 4
        }
      ]
    },
    {
      "name": "Object_13",
      "primitives": [
        {
          "attributes": {
            "NORMAL": 89,
            "POSITION": 88,
            "TANGENT": 90,
            "TEXCOORD_0": 91,
            "TEXCOORD_1": 92,
            "TEXCOORD_2": 93,
            "TEXCOORD_3": 94
          },
          "indices": 95,
          "material": 0,
          "mode": 4
        }
      ]
    },
    {
      "name": "Object_14",
      "primitives": [
        {
          "attributes": {
            "NORMAL": 97,
            "POSITION": 96,
            "TANGENT": 98,
            "TEXCOORD_0": 99,
            "TEXCOORD_1": 100,
            "TEXCOORD_2": 101,
            "TEXCOORD_3": 102
          },
          "indices": 103,
          "material": 0,
          "mode": 4
        }
      ]
    },
    {
      "name": "Object_15",
      "primitives": [
        {
          "attributes": {
            "NORMAL": 105,
            "POSITION": 104,
            "TANGENT": 106,
            "TEXCOORD_0": 107,
            "TEXCOORD_1": 108,
            "TEXCOORD_2": 109,
            "TEXCOORD_3": 110
          },
          "indices": 111,
          "material": 0,
          "mode": 4
        }
      ]
    },
    {
      "name": "Object_16",
      "primitives": [
        {
          "attributes": {
            "NORMAL": 113,
            "POSITION": 112,
            "TANGENT": 114,
            "TEXCOORD_0": 115,
            "TEXCOORD_1": 116,
            "TEXCOORD_2": 117,
            "TEXCOORD_3": 118
          },
          "indices": 119,
          "material": 0,
          "mode": 4
        }
      ]
    },
    {
      "name": "Object_17",
      "primitives": [
        {
          "attributes": {
            "NORMAL": 121,
            "POSITION": 120,
            "TANGENT": 122,
            "TEXCOORD_0": 123,
            "TEXCOORD_1": 124,
            "TEXCOORD_2": 125,
            "TEXCOORD_3": 126
          },
          "indices": 127,
          "material": 0,
          "mode": 4
        }
      ]
    },
    {
      "name": "Object_18",
      "primitives": [
        {
          "attributes": {
            "NORMAL": 129,
            "POSITION": 128,
            "TANGENT": 130,
            "TEXCOORD_0": 131,
            "TEXCOORD_1": 132,
            "TEXCOORD_2": 133,
            "TEXCOORD_3": 134
          },
          "indices": 135,
          "material": 0,
          "mode": 4
        }
      ]
    },
    {
      "name": "Object_19",
      "primitives": [
        {
          "attributes": {
            "NORMAL": 137,
            "POSITION": 136,
            "TANGENT": 138,
            "TEXCOORD_0": 139,
            "TEXCOORD_1": 140,
            "TEXCOORD_2": 141,
            "TEXCOORD_3": 142
          },
          "indices": 143,
          "material": 0,
          "mode": 4
        }
      ]
    },
    {
      "name": "Object_20",
      "primitives": [
        {
          "attributes": {
            "NORMAL": 145,
            "POSITION": 144,
            "TANGENT": 146,
            "TEXCOORD_0": 147,
            "TEXCOORD_1": 148,
            "TEXCOORD_2": 149,
            "TEXCOORD_3": 150
          },
          "indices": 151,
          "material": 0,
          "mode": 4
        }
      ]
    },
    {
      "name": "Object_21",
      "primitives": [
        {
          "attributes": {
            "NORMAL": 153,
            "POSITION": 152,
            "TANGENT": 154,
            "TEXCOORD_0": 155,
            "TEXCOORD_1": 156,
            "TEXCOORD_2": 157,
            "TEXCOORD_3": 158
          },
          "indices": 159,
          "material": 0,
          "mode": 4
        }
      ]
    },
    {
      "name": "Object_22",
      "primitives": [
        {
          "attributes": {
            "NORMAL": 161,
            "POSITION": 160,
            "TEXCOORD_0": 162
          },
          "indices": 163,
          "material": 6,
          "mode": 4
        }
      ]
    },
    {
      "name": "Object_23",
      "primitives": [
        {
          "attributes": {
            "NORMAL": 165,
            "POSITION": 164,
            "TEXCOORD_0": 166
          },
          "indices": 167,
          "material": 6,
          "mode": 4
        }
      ]
    },
    {
      "name": "Object_24",
      "primitives": [
        {
          "attributes": {
            "NORMAL": 169,
            "POSITION": 168,
            "TEXCOORD_0": 170
          },
          "indices": 171,
          "material": 6,
          "mode": 4
        }
      ]
    },
    {
      "name": "Object_25",
      "primitives": [
        {
          "attributes": {
            "NORMAL": 173,
            "POSITION": 172,
            "TEXCOORD_0": 174
          },
          "indices": 175,
          "material": 6,
          "mode": 4
        }
      ]
    },
    {
      "name": "Object_26",
      "primitives": [
        {
          "attributes": {
            "NORMAL": 177,
            "POSITION": 176,
            "TEXCOORD_0": 178
          },
          "indices": 179,
          "material": 7,
          "mode": 4
        }
      ]
    },
    {
      "name": "Object_27",
      "primitives": [
        {
          "attributes": {
            "NORMAL": 181,
            "POSITION": 180,
            "TEXCOORD_0": 182
          },
          "indices": 183,
          "material": 8,
          "mode": 4
        }
      ]
    },
    {
      "name": "Object_28",
      "primitives": [
        {
          "attributes": {
            "NORMAL": 185,
            "POSITION": 184,
            "TEXCOORD_0": 186
          },
          "indices": 187,
          "material": 9,
          "mode": 4
        }
      ]
    },
    {
      "name": "Object_29",
      "primitives": [
        {
          "attributes": {
            "NORMAL": 189,
            "POSITION": 188,
            "TEXCOORD_0": 190
          },
          "indices": 191,
          "material": 9,
          "mode": 4
        }
      ]
    },
    {
      "name": "Object_30",
      "primitives": [
        {
          "attributes": {
            "NORMAL": 193,
            "POSITION": 192,
            "TEXCOORD_0": 194
          },
          "indices": 195,
          "material": 9,
          "mode": 4
        }
      ]
    },
    {
      "name": "Object_31",
      "primitives": [
        {
          "attributes": {
            "NORMAL": 197,
            "POSITION": 196,
            "TEXCOORD_0": 198
          },
          "indices": 199,
          "material": 10,
          "mode": 4
        }
      ]
    },
    {
      "name": "Object_32",
      "primitives": [
        {
          "attributes": {
            "NORMAL": 201,
            "POSITION": 200,
            "TEXCOORD_0": 202
          },
          "indices": 203,
          "material": 11,
          "mode": 4
        }
      ]
    },
    {
      "name": "Object_33",
      "primitives": [
        {
          "attributes": {
            "NORMAL": 205,
            "POSITION": 204,
            "TEXCOORD_0": 206
          },
          "indices": 207,
          "material": 12,
          "mode": 4
        }
      ]
    }
  ],
  "nodes": [
    {
      "children": [
        1
      ],
      "matrix": [
        1.0,
        0.0,
        0.0,
        0.0,
        0.0,
        2.220446049250313e-16,
        -1.0,
        0.0,
        0.0,
        1.0,
        2.220446049250313e-16,
        0.0,
        0.0,
        0.0,
        0.0,
        1.0
      ],
      "name": "Sketchfab_model"
    },
    {
      "children": [
        2
      ],
      "name": "root"
    },
    {
      "children": [
        3,
        5,
        7,
        9,
        11,
        14,
        16,
        19,
        22,
        24,
        26,
        28,
        30,
        32,
        34,
        36,
        38,
        40,
        42,
        44,
        46,
        48,
        50,
        52,
        54,
        56,
        58,
        60,
        62,
        64,
        66
      ],
      "matrix": [
        1.0,
        0.0,
        0.0,
        0.0,
        0.0,
        2.220446049250313e-16,
        1.0,
        0.0,
        0.0,
        -1.0,
        2.220446049250313e-16,
        0.0,
        0.0,
        0.0,
        0.0,
        1.0
      ],
      "name": "GLTF_SceneRootNode"
    },
    {
      "children": [
        4
      ],
      "name": "BASE.001_10"
    },
    {
      "mesh": 0,
      "name": "Object_4"
    },
    {
      "children": [
        6
      ],
      "matrix": [
        1.0,
        0.0,
        0.0,
        0.0,
        0.0,
        8.429369480200677e-08,
        0.9999999999999966,
        0.0,
        0.0,
        -0.9999999999999966,
        8.429369480200677e-08,
        0.0,
        2.310673952102661,
        0.07142598181962967,
        -0.15729933977127075,
        1.0
      ],
      "name": "Door 2.001_11"
    },
    {
      "mesh": 1,
      "name": "Object_6"
    },
    {
      "children": [
        8
      ],
      "matrix": [
        1.239996075630188,
        0.0,
        -0.0,
        0.0,
        0.0,
        -3.135715526775732e-07,
        -1.2399960756301482,
        0.0,
        0.0,
        1.2399960756301482,
        -3.135715526775732e-07,
        0.0,
        2.1214914321899414,
        0.06894950568675995,
        -0.18105098605155945,
        1.0
      ],
      "name": "door handle.001_12"
    },
    {
      "mesh": 2,
      "name": "Object_8"
    },
    {
      "children": [
        10
      ],
      "matrix": [
        1.0,
        0.0,
        0.0,
        0.0,
        0.0,
        8.429369480200677e-08,
        0.9999999999999966,
        0.0,
        0.0,
        -0.9999999999999966,
        8.429369480200677e-08,
        0.0,
        1.9978781938552856,
        0.07142598181962967,
        -0.15729933977127075,
        1.0
      ],
      "name": "Door1.001_13"
    },
    {
      "mesh": 3,
      "name": "Object_10"
    },
    {
      "children": [
        12,
        13
      ],
      "matrix": [
        1.0,
        0.0,
        0.0,
        0.0,
        0.0,
        1.0,
        0.0,
        0.0,
        0.0,
        0.0,
        1.0,
        0.0,
        -0.39538753032684326,
        2.0284974575042725,
        0.0,
        1.0
      ],
      "name": "flue.001_14"
    },
    {
      "mesh": 4,
      "name": "Object_12"
    },
    {
      "mesh": 5,
      "name": "Object_13"
    },
    {
      "children": [
        15
      ],
      "matrix": [
        1.0,
        0.0,
        0.0,
        0.0,
        0.0,
        1.0,
        0.0,
        0.0,
        0.0,
        0.0,
        1.0,
        0.0,
        2.845567464828491,
        0.14931342005729675,
        -0.9385610222816467,
        1.0
      ],
      "name": "pipe.001_15"
    },
    {
      "mesh": 6,
      "name": "Object_15"
    },
    {
      "children": [
        17,
        18
      ],
      "matrix": [
        1.0,
        0.0,
        0.0,
        0.0,
        0.0,
        1.0,
        0.0,
        0.0,
        0.0,
        0.0,
        1.0404151678085327,
        0.0,
        0.0,
        0.0,
        0.01726818084716797,
        1.0
      ],
      "name": "Roof.001_16"
    },
    {
      "mesh": 7,
      "name": "Object_17"
    },
    {
      "mesh": 8,
      "name": "Object_18"
    },
    {
      "children": [
        20,
        21
      ],
      "matrix": [
        1.0,
        0.0,
        0.0,
        0.0,
        0.0,
        1.0,
        0.0,
        0.0,
        0.0,
        0.0,
        1.0,
        0.0,
        2.1630709171295166,
        1.0890942811965942,
        0.7298226952552795,
        1.0
      ],
      "name": "Roof 2.001_17"
    },
    {
      "mesh": 9,
      "name": "Object_20"
    },
    {
      "mesh": 10,
      "name": "Object_21"
    },
    {
      "children": [
        23
      ],
      "matrix": [
        1.0,
        0.0,
        0.0,
        0.0,
        0.0,
        1.0,
        0.0,
        0.0,
        0.0,
        0.0,
        1.0,
        0.0,
        2.172434091567993,
        1.0884838104248047,
        0.7298226952552795,
        1.0
      ],
      "name": "Visor.001_18"
    },
    {
      "mesh": 11,
      "name": "Object_23"
    },
    {
      "children": [
        25
      ],
      "matrix": [
        8.840719625514945e-08,
        0.0,
        -1.0487996339797938,
        0.0,
        0.0,
        0.9813646674156189,
        0.0,
        0.0,
        0.9813646674156156,
        0.0,
        8.272285376460506e-08,
        0.0,
        -1.4668952226638794,
        0.20663684606552124,
        -0.5998102426528931,
        1.0
      ],
      "name": "Window 3.001_19"
    },
    {
      "mesh": 12,
      "name": "Object_25"
    },
    {
      "children": [
        27
      ],
      "matrix": [
        0.9813646674156189,
        0.0,
        0.0,
        0.0,
        0.0,
        0.9813646674156189,
        0.0,
        0.0,
        0.0,
        0.0,
        0.9813646674156189,
        0.0,
        0.0029968279413878918,
        0.20663684606552124,
        2.5047740936279297,
        1.0
      ],
      "name": "Window 4.001_20"
    },
    {
      "mesh": 13,
      "name": "Object_27"
    },
    {
      "children": [
        29
      ],
      "matrix": [
        0.7610256671905518,
        0.0,
        0.0,
        0.0,
        0.0,
        0.7455262541770935,
        0.0,
        0.0,
        0.0,
        0.0,
        0.6902795433998108,
        0.0,
        1.7336405515670776,
        0.28410035371780396,
        2.5231661796569824,
        1.0
      ],
      "name": "Window terrace 6_21"
    },
    {
      "mesh": 14,
      "name": "Object_29"
    },
    {
      "children": [
        31
      ],
      "matrix": [
        6.569563610016505e-08,
        0.0,
        -0.779365956783292,
        0.0,
        0.0,
        0.7455261945724487,
        0.0,
        0.0,
        0.6902794241905189,
        0.0,
        5.8186203110820766e-08,
        0.0,
        2.8828914165496826,
        0.28410035371780396,
        0.4737531244754791,
        1.0
      ],
      "name": "Window terrace 3_22"
    },
    {
      "mesh": 15,
      "name": "Object_31"
    },
    {
      "children": [
        33
      ],
      "matrix": [
        1.0,
        0.0,
        0.0,
        0.0,
        0.0,
        8.429369480200677e-08,
        0.9999999999999966,
        0.0,
        0.0,
        -0.9999999999999966,
        8.429369480200677e-08,
        0.0,
        1.680880069732666,
        0.2805100679397583,
        -0.17929932475090027,
        1.0
      ],
      "name": "Window terrace 5.001_23"
    },
    {
      "mesh": 16,
      "name": "Object_33"
    },
    {
      "children": [
        35
      ],
      "matrix": [
        1.0,
        0.0,
        0.0,
        0.0,
        0.0,
        8.429369480200677e-08,
        0.9999999999999966,
        0.0,
        0.0,
        -0.9999999999999966,
        8.429369480200677e-08,
        0.0,
        2.7401864528656006,
        0.2805100679397583,
        -0.17929932475090027,
        1.0
      ],
      "name": "Window terrace 6.001_24"
    },
    {
      "mesh": 17,
      "name": "Object_35"
    },
    {
      "children": [
        37
      ],
      "matrix": [
        6.569563610016505e-08,
        0.0,
        -0.779365956783292,
        0.0,
        0.0,
        0.7455261945724487,
        0.0,
        0.0,
        0.6902794241905189,
        0.0,
        5.8186203110820766e-08,
        0.0,
        2.8828914165496826,
        0.28410035371780396,
        1.3766659498214722,
        1.0
      ],
      "name": "Window terrace 4_25"
    },
    {
      "mesh": 18,
      "name": "Object_37"
    },
    {
      "children": [
        39
      ],
      "matrix": [
        6.439845840288339e-08,
        0.0,
        -0.7639771699905369,
        0.0,
        0.0,
        0.7455261945724487,
        0.0,
        0.0,
        0.6902794241905189,
        0.0,
        5.8186203110820766e-08,
        0.0,
        2.8828914165496826,
        0.28410035371780396,
        2.265995502471924,
        1.0
      ],
      "name": "Window terrace 5_26"
    },
    {
      "mesh": 19,
      "name": "Object_39"
    },
    {
      "children": [
        41
      ],
      "matrix": [
        9.117993424550519e-08,
        0.0,
        1.0816934108734093,
        0.0,
        0.0,
        0.9813646674156189,
        0.0,
        0.0,
        -0.9813646674156156,
        0.0,
        8.272285376460506e-08,
        0.0,
        1.4645540714263916,
        0.20663684606552124,
        -0.7614438533782959,
        1.0
      ],
      "name": "Window 3.002_27"
    },
    {
      "mesh": 20,
      "name": "Object_41"
    },
    {
      "children": [
        43
      ],
      "matrix": [
        -0.9813646674156076,
        0.0,
        -1.4818194552912937e-07,
        0.0,
        0.0,
        0.9813646674156189,
        0.0,
        0.0,
        1.4818194552912937e-07,
        0.0,
        -0.9813646674156076,
        0.0,
        0.0029968279413878918,
        0.20663684606552124,
        -2.500241279602051,
        1.0
      ],
      "name": "Window 4.002_28"
    },
    {
      "mesh": 21,
      "name": "Object_43"
    },
    {
      "children": [
        45
      ],
      "matrix": [
        -2.9802322387695313e-08,
        2.980232327587373e-08,
        0.9999999999999991,
        0.0,
        0.9999999999999991,
        -2.9802322387695313e-08,
        2.980232327587373e-08,
        0.0,
        2.980232327587373e-08,
        0.9999999999999991,
        -2.9802322387695313e-08,
        0.0,
        1.4406071901321411,
        0.2501836121082306,
        -0.7655495405197144,
        1.0
      ],
      "name": "Window 3.003_29"
    },
    {
      "mesh": 22,
      "name": "Object_45"
    },
    {
      "children": [
        47
      ],
      "matrix": [
        -2.9802322387695313e-08,
        -2.980232327587373e-08,
        -0.9999999999999991,
        0.0,
        -0.9999999999999991,
        -2.9802322387695313e-08,
        2.980232327587373e-08,
        0.0,
        -2.980232327587373e-08,
        0.9999999999999991,
        -2.9802322387695313e-08,
        0.0,
        -1.4627439975738525,
        0.20008984208106995,
        -0.5906093716621399,
        1.0
      ],
      "name": "Window 3.004_30"
    },
    {
      "mesh": 23,
      "name": "Object_47"
    },
    {
      "children": [
        49
      ],
      "matrix": [
        1.0,
        0.0,
        -0.0,
        0.0,
        -0.0,
        0.0,
        -1.0,
        0.0,
        0.0,
        1.0,
        0.0,
        0.0,
        0.0,
        0.20008984208106995,
        -2.503006935119629,
        1.0
      ],
      "name": "Window 4.003_31"
    },
    {
      "mesh": 24,
      "name": "Object_49"
    },
    {
      "children": [
        51
      ],
      "matrix": [
        -0.9999999999999982,
        -4.371139121043356e-08,
        4.371139121043356e-08,
        0.0,
        4.371139121043356e-08,
        8.881784197001252e-16,
        0.9999999999999991,
        0.0,
        -4.371139121043356e-08,
        0.9999999999999991,
        8.881784197001252e-16,
        0.0,
        0.0,
        0.20008984208106995,
        2.5031182765960693,
        1.0
      ],
      "name": "Window 4.004_32"
    },
    {
      "mesh": 25,
      "name": "Object_51"
    },
    {
      "children": [
        53
      ],
      "matrix": [
        -0.10390862077474576,
        -4.541990372821503e-09,
        -4.541990372821503e-09,
        0.0,
        1.377787093702957e-08,
        2.799546593420317e-16,
        -0.3152009248733518,
        0.0,
        1.142564762266947e-08,
        -0.2613883316516874,
        2.3215947533444814e-16,
        0.0,
        1.680099606513977,
        0.2780856490135193,
        -0.18804144859313965,
        1.0
      ],
      "name": "Window terrace 1_33"
    },
    {
      "mesh": 26,
      "name": "Object_53"
    },
    {
      "children": [
        55
      ],
      "matrix": [
        -0.16287072002887698,
        -7.11930575990725e-09,
        -7.11930575990725e-09,
        0.0,
        6.381397958681516e-09,
        1.2966459765907635e-16,
        -0.14598935842514024,
        0.0,
        1.1444932807871809e-08,
        -0.26182952523231484,
        2.3255133395167166e-16,
        0.0,
        2.6851131916046143,
        0.2808428406715393,
        -0.1894729882478714,
        1.0
      ],
      "name": "Window terrace 2_34"
    },
    {
      "mesh": 27,
      "name": "Object_55"
    },
    {
      "children": [
        57
      ],
      "matrix": [
        0.0,
        -1.0,
        0.0,
        0.0,
        1.0,
        0.0,
        0.0,
        0.0,
        0.0,
        0.0,
        1.0,
        0.0,
        2.88224196434021,
        0.29283514618873596,
        0.2774355411529541,
        1.0
      ],
      "name": "Window terrace 3.001_35"
    },
    {
      "mesh": 28,
      "name": "Object_57"
    },
    {
      "children": [
        59
      ],
      "matrix": [
        0.0,
        -1.0,
        0.0,
        0.0,
        1.0,
        0.0,
        0.0,
        0.0,
        0.0,
        0.0,
        1.0,
        0.0,
        2.88224196434021,
        0.29283514618873596,
        1.181800365447998,
        1.0
      ],
      "name": "Window terrace 4.001_36"
    },
    {
      "mesh": 29,
      "name": "Object_59"
    },
    {
      "children": [
        61
      ],
      "matrix": [
        0.0,
        -1.0,
        0.0,
        0.0,
        1.0,
        0.0,
        0.0,
        0.0,
        0.0,
        0.0,
        1.0,
        0.0,
        2.88224196434021,
        0.29283514618873596,
        2.0785117149353027,
        1.0
      ],
      "name": "Window terrace 5.002_37"
    },
    {
      "mesh": 30,
      "name": "Object_61"
    },
    {
      "children": [
        63
      ],
      "matrix": [
        1.0,
        0.0,
        0.0,
        0.0,
        0.0,
        0.0,
        1.0,
        0.0,
        0.0,
        -1.0,
        0.0,
        0.0,
        2.186771869659424,
        0.2891959846019745,
        2.5116915702819824,
        1.0
      ],
      "name": "Window terrace 6.002_38"
    },
    {
      "mesh": 31,
      "name": "Object_63"
    },
    {
      "children": [
        65
      ],
      "matrix": [
        -0.12859508395194985,
        -5.621070022362236e-09,
        -5.621070022362236e-09,
        0.0,
        6.381397958681516e-09,
        1.2966459765907635e-16,
        -0.14598935842514024,
        0.0,
        9.689995935520234e-09,
        -0.22168125212192516,
        1.968925041867967e-16,
        0.0,
        2.311269998550415,
        0.31785228848457336,
        -0.15398040413856506,
        1.0
      ],
      "name": "Door window 2_39"
    },
    {
      "mesh": 32,
      "name": "Object_65"
    },
    {
      "children": [
        67
      ],
      "matrix": [
        -0.12859508395194985,
        -5.621070022362236e-09,
        -5.621070022362236e-09,
        0.0,
        6.381397958681516e-09,
        1.2966459765907635e-16,
        -0.14598935842514024,
        0.0,
        9.689995935520234e-09,
        -0.22168125212192516,
        1.968925041867967e-16,
        0.0,
        1.9942963123321533,
        0.31785228848457336,
        -0.15398040413856506,
        1.0
      ],
      "name": "Door window 1_40"
    },
    {
      "mesh": 33,
      "name": "Object_67"
    }
  ],
  "samplers": [
    {
      "magFilter": 9729,
      "minFilter": 9987,
      "wrapS": 10497,
      "wrapT": 10497
    }
  ],
  "scene": 0,
  "scenes": [
    {
      "name": "Sketchfab_Scene",
      "nodes": [
        0
      ]
    }
  ],
  "textures": [
    {
      "sampler": 0,
      "source": 0
    },
    {
      "sampler": 0,
      "source": 1
    },
    {
      "sampler": 0,
      "source": 2
    },
    {
      "sampler": 0,
      "source": 3
    },
    {
      "sampler": 0,
      "source": 4
    },
    {
      "sampler": 0,
      "source": 5
    },
    {
      "sampler": 0,
      "source": 6
    },
    {
      "sampler": 0,
      "source": 7
    },
    {
      "sampler": 0,
      "source": 8
    },
    {
      "sampler": 0,
      "source": 9
    },
    {
      "sampler": 0,
      "source": 10
    },
    {
      "sampler": 0,
      "source": 11
    }
  ]
}
