{
  "accessors": [
    {
      "bufferView": 2,
      "componentType": 5126,
      "count": 372,
      "max": [
        4.661344051361084,
        1.3227909803390503,
        4.519128799438477
      ],
      "min": [
        -4.661344051361084,
        0.6288229823112488,
        1.4618090391159058
      ],
      "type": "VEC3"
    },
    {
      "bufferView": 2,
      "byteOffset": 4464,
      "componentType": 5126,
      "count": 372,
      "max": [
        1.0,
        0.9992145299911499,
        0.9992143511772156
      ],
      "min": [
        -1.0,
        -0.9996669888496399,
        -0.9996671080589294
      ],
      "type": "VEC3"
    },
    {
      "bufferView": 3,
      "componentType": 5126,
      "count": 372,
      "max": [
        1.0,
        0.9996671676635742,
        0.9992145895957947,
        1.0
      ],
      "min": [
        -1.0,
        -0.9992143511772156,
        -0.9854937195777893,
        1.0
      ],
      "type": "VEC4"
    },
    {
      "bufferView": 1,
      "componentType": 5126,
      "count": 372,
      "max": [
        0.9204469919204712,
        0.955070972442627
      ],
      "min": [
        0.0019529999699443579,
        0.0019529999699443579
      ],
      "type": "VEC2"
    },
    {
      "bufferView": 0,
      "componentType": 5125,
      "count": 1020,
      "type": "SCALAR"
    },
    {
      "bufferView": 2,
      "byteOffset": 8928,
      "componentType": 5126,
      "count": 872,
      "max": [
        4.902390003204346,
        1.6825400590896606,
        4.642469882965088
      ],
      "min": [
        -4.902390003204346,
        -1.0,
        0.0
      ],
      "type": "VEC3"
    },
    {
      "bufferView": 2,
      "byteOffset": 19392,
      "componentType": 5126,
      "count": 872,
      "max": [
        1.0,
        0.9999714493751526,
        0.9999996423721313
      ],
      "min": [
        -1.0,
        -0.9999998807907104,
        -1.0
      ],
      "type": "VEC3"
    },
    {
      "bufferView": 3,
      "byteOffset": 5952,
      "componentType": 5126,
      "count": 872,
      "max": [
        1.0,
        0.9998570680618286,
        0.8532077670097351,
        1.0
      ],
      "min": [
        -1.0,
        -0.9998571872711182,
        -0.8532084226608276,
        1.0
      ],
      "type": "VEC4"
    },
    {
      "bufferView": 1,
      "byteOffset": 2976,
      "componentType": 5126,
      "count": 872,
      "max": [
        0.9803379774093628,
        0.9278129935264587
      ],
      "min": [
        0.6283919811248779,
        0.0019529999699443579
      ],
      "type": "VEC2"
    },
    {
      "bufferView": 0,
      "byteOffset": 4080,
      "componentType": 5125,
      "count": 2544,
      "type": "SCALAR"
    },
    {
      "bufferView": 2,
      "byteOffset": 29856,
      "componentType": 5126,
      "count": 136,
      "max": [
        4.747167110443115,
        1.1630239486694336,
        1.9370850324630737
      ],
      "min": [
        -4.747167110443115,
        -1.0690410137176514,
        1.7577120065689087
      ],
      "type": "VEC3"
    },
    {
      "bufferView": 2,
      "byteOffset": 31488,
      "componentType": 5126,
      "count": 136,
      "max": [
        0.9692033529281616,
        0.9807837605476379,
        0.9807833433151245
      ],
      "min": [
        -0.9692028760910034,
        -0.9807843565940857,
        -0.980783998966217
      ],
      "type": "VEC3"
    },
    {
      "bufferView": 3,
      "byteOffset": 19904,
      "componentType": 5126,
      "count": 136,
      "max": [
        1.0,
        0.7071104645729065,
        0.6928974986076355,
        1.0
      ],
      "min": [
        -1.0,
        -0.7071076035499573,
        -0.9844475388526917,
        1.0
      ],
      "type": "VEC4"
    },
    {
      "bufferView": 1,
      "byteOffset": 9952,
      "componentType": 5126,
      "count": 136,
      "max": [
        0.9980469942092896,
        0.9336559772491455
      ],
      "min": [
        0.0019529999699443579,
        0.0019529999699443579
      ],
      "type": "VEC2"
    },
    {
      "bufferView": 0,
      "byteOffset": 14256,
      "componentType": 5125,
      "count": 540,
      "type": "SCALAR"
    }
  ],
  "asset": {
    "extras": {
      "author": "Amatsukast (https://sketchfab.com/Amatsukast)",
      "license": "CC-BY-NC-SA-4.0 (http://creativecommons.org/licenses/by-nc-sa/4.0/)",
      "source": "https://sketchfab.com/3d-models/church-pew-bench-05b6508546f74c50ab611a21ee218cac",
      "title": "Church Pew Bench"
    },
    "generator": "Sketchfab-12.68.0",
    "version": "2.0"
  },
  "bufferViews": [
    {
      "buffer": 0,
      "byteLength": 16416,
      "name": "floatBufferViews",
      "target": 34963
    },
    {
      "buffer": 0,
      "byteLength": 11040,
      "byteOffset": 16416,
      "byteStride": 8,
      "name": "floatBufferViews",
      "target": 34962
    },
    {
      "buffer": 0,
      "byteLength": 33120,
      "byteOffset": 27456,
      "byteStride": 12,
      "name": "floatBufferViews",
      "target": 34962
    },
    {
      "buffer": 0,
      "byteLength": 22080,
      "byteOffset": 60576,
      "byteStride": 16,
      "name": "floatBufferViews",
      "target": 34962
    }
  ],
  "buffers": [
    {
      "byteLength": 82656,
      "uri": "scene.bin"
    }
  ],
  "images": [
    {
      "uri": "../textures/DefaultMaterial_baseColor.jpeg"
    },
    {
      "uri": "../textures/DefaultMaterial_metallicRoughness.png"
    },
    {
      "uri": "../textures/DefaultMaterial_normal.png"
    }
  ],
  "materials": [
    {
      "doubleSided": true,
      "name": "DefaultMaterial",
      "normalTexture": {
        "index": 2
      },
      "occlusionTexture": {
        "index": 1
      },
      "pbrMetallicRoughness": {
        "baseColorTexture": {
          "index": 0
        },
        "metallicRoughnessTexture": {
          "index": 1
        }
      }
    }
  ],
  "meshes": [
    {
      "name": "defaultMaterial",
      "primitives": [
        {
          "attributes": {
            "NORMAL": 1,
            "POSITION": 0,
            "TANGENT": 2,
            "TEXCOORD_0": 3
          },
          "indices": 4,
          "material": 0,
          "mode": 4
        }
      ]
    },
    {
      "name": "defaultMaterial",
      "primitives": [
        {
          "attributes": {
            "NORMAL": 6,
            "POSITION": 5,
            "TANGENT": 7,
            "TEXCOORD_0": 8
          },
          "indices": 9,
          "material": 0,
          "mode": 4
        }
      ]
    },
    {
      "name": "defaultMaterial",
      "primitives": [
        {
          "attributes": {
            "NORMAL": 11,
            "POSITION": 10,
            "TANGENT": 12,
            "TEXCOORD_0": 13
          },
          "indices": 14,
          "material": 0,
          "mode": 4
        }
      ]
    }
  ],
  "nodes": [
    {
      "children": [
        1
      ],
      "matrix": [
        0.002538682660087943,
        0.0,
        0.0,
        0.0,
        0.0,
        5.637007882892549e-19,
        -0.002538682660087943,
        0.0,
        0.0,
        0.002538682660087943,
        5.637007882892549e-19,
        0.0,
        0.0,
        0.0,
        0.0,
        1.0
      ],
      "name": "Sketchfab_model"
    },
    {
      "children": [
        2
      ],
      "matrix": [
        1.0,
        0.0,
        0.0,
        0.0,
        0.0,
        -4.371139006309477e-08,
        0.999999999999999,
        0.0,
        0.0,
        -0.999999999999999,
        -4.371139006309477e-08,
        0.0,
        0.0,
        0.0,
        0.0,
        1.0
      ],
      "name": "Collada visual scene group"
    },
    {
      "children": [
        3,
        4,
        6
      ],
      "matrix": [
        100.0,
        0.0,
        0.0,
        0.0,
        0.0,
        -1.6e-05,
        -100.0,
        0.0,
        0.0,
        100.0,
        -1.6e-05,
        0.0,
        0.0,
        0.0,
        0.0,
        1.0
      ],
      "name": "Cube.002"
    },
    {
      "mesh": 0,
      "name": "defaultMaterial"
    },
    {
      "children": [
        5
      ],
      "name": "Cube.003"
    },
    {
      "mesh": 1,
      "name": "defaultMaterial"
    },
    {
      "children": [
        7
      ],
      "name": "Cube"
    },
    {
      "mesh": 2,
      "name": "defaultMaterial"
    }
  ],
  "samplers": [
    {
      "magFilter": 9729,
      "minFilter": 9987,
      "wrapS": 10497,
      "wrapT": 10497
    }
  ],
  "scene": 0,
  "scenes": [
    {
      "name": "Sketchfab_Scene",
      "nodes": [
        0
      ]
    }
  ],
  "textures": [
    {
      "sampler": 0,
      "source": 0
    },
    {
      "sampler": 0,
      "source": 1
    },
    {
      "sampler": 0,
      "source": 2
    }
  ]
}
