# File generated by ImageToStl.com - Free Image and 3D model conversion tools

mtllib window.mtl

o obj1
v -3 18.00000149 33.99999921
v -2.99999809 -17.99999851 34.00000079
v -3.49999809 -17.99999851 34.00000079
v -3.5 18.00000149 33.99999921
v -3.00000095 -20.00000157 -35.99999913
v -2.9999969 -19.99999843 36.00000087
v 3.44941306 -19.99999843 36.00000087
v 2.99999905 -20.00000157 -35.99999913
v 3.44940901 -20.00000157 -35.99999913
v -2.75 -18.2500015 -34.2499992
v -3 -18.00000149 -33.99999921
v -2.99999905 -17.99999945 12.50000079
v -2.74999905 -18.24999944 12.7500008
v -2.74999809 -18.2499985 34.2500008
v -2.74999809 -18.24999938 14.2500008
v -2.99999809 -17.99999937 14.50000079
v -3.49999809 -17.99999937 14.50000079
v -3.5 -18.00000149 -33.99999921
v -3.49999905 -17.99999945 12.50000079
v -3.50000191 17.99999851 -34.00000079
v -3.00000191 17.99999851 -34.00000079
v -3.00000095 18.00000055 12.49999921
v -3.50000095 18.00000055 12.49999921
v 3.87499905 -22.25000157 -35.99999903
v 3.8750031 -22.24999833 38.25000097
v 3.0000031 -22.24999833 38.25000097
v 2.99999905 -22.25000157 -35.99999903
v 3.00000095 22.25000167 38.24999903
v 3.87500095 22.25000167 38.24999903
v 3.44941092 20.00000157 35.99999913
v -2.99999905 20.00000157 35.99999913
v 2.9999969 19.99999843 -36.00000087
v -3.0000031 19.99999843 -36.00000087
v 2.9999969 22.24999843 -36.00000097
v 3.8749969 22.24999843 -36.00000097
v 4.94385004 22.24999837 -37.19385626
v 4.94385195 -22.25000163 -37.19385431
v 4.81354094 -22.25000163 -37.24999903
v 4.81353903 22.24999837 -37.25000097
v 4.94385195 -22.25000158 -36.05614756
v 4.94385004 22.24999842 -36.0561495
v 4.81353903 22.24999843 -36.00000097
v 4.81354094 -22.25000157 -35.99999903
v 3.90781093 -22.25000172 -39.24999903
v 3.90780902 22.24999828 -39.25000097
v 3.9999969 22.24999829 -39.157815
v 3.99999905 -22.25000171 -39.15781305
v 3.7499969 22.24999825 -40.06771185
v 3.74999905 -22.25000175 -40.0677099
v 3.56770706 -22.25000176 -40.24999903
v 3.56770492 22.24999824 -40.25000097
v 3.99999905 -22.25000163 -37.24999903
v 3.74999905 -22.25000172 -39.24999903
v 2.99999905 -22.25000176 -40.24999903
v 5 -22.25000158 -36.18645762
v 5 -22.25000162 -37.06354044
v 3.9999969 22.24999837 -37.25000097
v 3.7499969 22.24999828 -39.25000097
v 2.9999969 22.24999824 -40.25000097
v -3.5 -17.00000144 -32.99999926
v -3.50000191 16.99999856 -33.00000074
v -5.00000191 16.99999856 -33.00000074
v -5 -17.00000144 -32.99999926
v -4.99999905 -16.9999995 11.50000074
v -5.00000095 17.0000005 11.49999926
v -3.50000095 17.0000005 11.49999926
v -3.49999905 -16.9999995 11.50000074
v -3.49999809 -16.99999932 15.50000074
v -3.5 17.00000068 15.49999926
v -5.00000095 17.00000068 15.49999926
v -4.99999905 -16.99999932 15.50000074
v -4.99999809 -16.99999856 33.00000074
v -5 17.00000144 32.99999926
v -3.5 17.00000144 32.99999926
v -3.49999809 -16.99999856 33.00000074
v -2.75000095 18.25000056 12.7499992
v -2.75 18.25000062 14.2499992
v -3 18.00000063 14.49999921
v -3.5 18.00000063 14.49999921
v -2.75 18.2500015 34.2499992
v -2.74999905 19.75000156 35.74999914
v -2.7500031 19.74999844 -35.75000086
v -2.75000095 -19.75000156 -35.74999914
v -2.75000191 18.2499985 -34.2500008
v -2.7499969 -19.74999844 35.75000086
v 3.4494071 19.99999843 -36.00000087
v 3.87499905 -22.00000157 -35.99999904
v 3.74999905 -21.75000157 -35.99999905
v 3.8750031 -21.99999834 38.00000096
v 3.7500031 -21.74999835 37.75000095
v 3.87500095 22.00000166 37.99999904
v 3.75000095 21.75000165 37.74999905
v 3.7500031 -20.99999838 37.00000092
v 3.75000095 21.00000162 36.99999908
v 3.8750031 -20.74999839 36.75000091
v 3.87500095 20.75000161 36.74999909
v 3.8750031 -20.42558892 36.42559141
v 3.87500095 20.42559211 36.42558962
v 3.814821 -20.21493753 36.21494382
v 3.8148191 20.2149407 36.21494205
v 3.66006398 -20.060181 36.06018154
v 3.66006207 20.06018224 36.06017979
v 3.66005993 -20.06018415 -35.99999912
v 3.81481695 -20.21494069 -35.99999912
v 3.87499905 -20.42559209 -35.99999911
v 3.87499905 -20.75000157 -35.99999909
v 3.74999905 -21.00000157 -35.99999908
v 3.66005802 20.06017909 -36.00000088
v 3.81481504 20.21493754 -36.00000088
v 3.8749969 20.42558894 -36.00000089
v 3.8749969 20.74999843 -36.00000091
v 3.7499969 20.99999843 -36.00000092
v 3.7499969 21.74999843 -36.00000095
v 3.8749969 21.99999843 -36.00000096
v 4.99999809 22.24999838 -37.06354238
v 4.99999809 22.24999842 -36.18645956
usemtl mat1
f 1 2 3
f 4 1 3
f 5 6 7
f 8 5 7
f 9 8 7
f 10 11 12
f 13 10 12
f 14 15 16
f 2 14 16
f 3 2 16
f 17 3 16
f 12 11 18
f 19 12 18
f 20 21 22
f 23 20 22
f 24 25 26
f 27 24 26
f 28 26 25
f 29 28 25
f 30 7 6
f 31 30 6
f 32 33 5
f 8 32 5
f 34 28 29
f 35 34 29
f 36 37 38
f 39 36 38
f 40 41 42
f 43 40 42
f 44 45 46
f 47 44 46
f 48 49 50
f 51 48 50
f 47 52 53
f 44 47 53
f 49 53 50
f 52 50 53
f 54 50 52
f 27 54 52
f 43 27 52
f 40 43 52
f 55 40 52
f 56 55 52
f 37 56 52
f 38 37 52
f 27 43 42
f 34 27 42
f 39 38 52
f 57 39 52
f 52 47 46
f 57 52 46
f 45 44 53
f 58 45 53
f 53 49 48
f 58 53 48
f 51 50 54
f 59 51 54
f 60 61 62
f 63 60 62
f 64 65 66
f 67 64 66
f 68 69 70
f 71 68 70
f 72 73 74
f 75 72 74
f 69 74 73
f 70 69 73
f 71 72 75
f 68 71 75
f 61 66 65
f 62 61 65
f 63 64 67
f 60 63 67
f 19 18 67
f 19 67 66
f 23 19 66
f 23 66 61
f 20 23 61
f 20 61 60
f 18 20 60
f 18 60 67
f 12 19 23
f 22 12 23
f 76 13 12
f 22 76 12
f 15 77 78
f 16 15 78
f 79 17 16
f 78 79 16
f 77 80 1
f 78 77 1
f 33 31 81
f 82 33 81
f 79 78 1
f 4 79 1
f 82 83 5
f 33 82 5
f 10 84 21
f 11 10 21
f 20 18 11
f 21 20 11
f 83 85 6
f 5 83 6
f 84 76 22
f 21 84 22
f 31 6 85
f 81 31 85
f 2 1 80
f 14 2 80
f 86 30 31
f 32 86 31
f 33 32 31
f 87 88 89
f 88 90 89
f 91 89 90
f 92 91 90
f 92 90 93
f 94 92 93
f 94 93 95
f 96 94 95
f 96 95 97
f 98 96 97
f 97 99 98
f 99 100 98
f 100 99 101
f 102 100 101
f 102 101 7
f 30 102 7
f 7 101 9
f 101 103 9
f 101 99 103
f 99 104 103
f 104 99 97
f 105 104 97
f 105 97 95
f 106 105 95
f 106 95 93
f 107 106 93
f 107 93 90
f 88 107 90
f 86 108 30
f 108 102 30
f 108 109 102
f 109 100 102
f 100 109 110
f 98 100 110
f 110 111 98
f 111 96 98
f 111 112 96
f 112 94 96
f 112 113 94
f 113 92 94
f 113 114 92
f 114 91 92
f 114 35 91
f 35 29 91
f 91 29 89
f 29 25 89
f 87 89 25
f 24 87 25
f 82 81 76
f 84 82 76
f 82 84 10
f 83 82 10
f 13 83 10
f 83 13 15
f 13 76 15
f 77 15 76
f 81 77 76
f 77 81 80
f 81 85 80
f 85 14 80
f 14 85 15
f 85 83 15
f 4 74 69
f 4 3 74
f 3 75 74
f 3 17 75
f 17 68 75
f 17 79 68
f 79 69 68
f 79 4 69
f 51 59 34
f 48 51 34
f 58 48 34
f 45 58 34
f 46 45 34
f 57 46 34
f 39 57 34
f 36 39 34
f 115 36 34
f 116 115 34
f 41 116 34
f 42 41 34
f 37 36 115
f 56 37 115
f 55 56 115
f 116 55 115
f 116 41 55
f 41 40 55
# Vertices: 116, normals: 0, texture coordinates: 0, faces: 200

