{
    "asset": {
        "version": "2.0",
        "generator": "Open Asset Import Library (assimp v5.2.cf7d3637)"
    },
    "extensionsUsed": [
        "KHR_materials_volume",
        "KHR_materials_ior",
        "FB_ngon_encoding"
    ],
    "accessors": [
        {
            "bufferView": 0,
            "byteOffset": 0,
            "componentType": 5126,
            "count": 1200,
            "type": "VEC3",
            "max": [
                0.1696850061416626,
                1.2869479656219483,
                -0.20089900493621827
            ],
            "min": [
                0.10994300246238709,
                1.2227180004119874,
                -0.26061901450157168
            ]
        },
        {
            "bufferView": 1,
            "byteOffset": 0,
            "componentType": 5126,
            "count": 1200,
            "type": "VEC3",
            "max": [
                0.9999279975891113,
                0.9994986653327942,
                0.9995705485343933
            ],
            "min": [
                -0.9999279975891113,
                -0.5492715835571289,
                -0.9995705485343933
            ]
        },
        {
            "bufferView": 2,
            "byteOffset": 0,
            "componentType": 5126,
            "count": 1200,
            "type": "VEC2",
            "max": [
                1.0,
                0.8125
            ],
            "min": [
                0.0,
                0.0
            ]
        },
        {
            "bufferView": 3,
            "byteOffset": 0,
            "componentType": 5125,
            "count": 1200,
            "type": "SCALAR",
            "max": [
                1199
            ],
            "min": [
                0
            ]
        },
        {
            "bufferView": 4,
            "byteOffset": 0,
            "componentType": 5126,
            "count": 3,
            "type": "VEC3",
            "max": [
                0.1441890001296997,
                0.7726100087165833,
                0.20947399735450746
            ],
            "min": [
                0.0,
                0.0,
                0.0
            ]
        },
        {
            "bufferView": 5,
            "byteOffset": 0,
            "componentType": 5126,
            "count": 3,
            "type": "VEC3",
            "max": [
                0.0,
                0.0,
                0.0
            ],
            "min": [
                0.0,
                0.0,
                0.0
            ]
        },
        {
            "bufferView": 6,
            "byteOffset": 0,
            "componentType": 5126,
            "count": 3,
            "type": "VEC2",
            "max": [
                0.0,
                1.0
            ],
            "min": [
                0.0,
                1.0
            ]
        },
        {
            "bufferView": 7,
            "byteOffset": 0,
            "componentType": 5125,
            "count": 2,
            "type": "SCALAR",
            "max": [
                1
            ],
            "min": [
                0
            ]
        },
        {
            "bufferView": 8,
            "byteOffset": 0,
            "componentType": 5126,
            "count": 59325,
            "type": "VEC3",
            "max": [
                0.38184499740600588,
                1.3555560111999512,
                0.5535500049591065
            ],
            "min": [
                -0.3204120099544525,
                -0.01080199982970953,
                -0.5694310069084168
            ]
        },
        {
            "bufferView": 9,
            "byteOffset": 0,
            "componentType": 5126,
            "count": 59325,
            "type": "VEC3",
            "max": [
                0.9999986886978149,
                1.0,
                0.9999979734420776
            ],
            "min": [
                -0.9999886751174927,
                -0.9999995231628418,
                -0.9999808073043823
            ]
        },
        {
            "bufferView": 10,
            "byteOffset": 0,
            "componentType": 5126,
            "count": 59325,
            "type": "VEC2",
            "max": [
                0.9973829984664917,
                0.9973819851875305
            ],
            "min": [
                0.002616999903693795,
                0.003207981586456299
            ]
        },
        {
            "bufferView": 11,
            "byteOffset": 0,
            "componentType": 5125,
            "count": 59325,
            "type": "SCALAR",
            "max": [
                59324
            ],
            "min": [
                0
            ]
        }
    ],
    "buffers": [
        {
            "byteLength": 2179004,
            "uri": "result.bin"
        }
    ],
    "bufferViews": [
        {
            "buffer": 0,
            "byteOffset": 0,
            "byteLength": 14400,
            "target": 34962
        },
        {
            "buffer": 0,
            "byteOffset": 14400,
            "byteLength": 14400,
            "target": 34962
        },
        {
            "buffer": 0,
            "byteOffset": 28800,
            "byteLength": 9600,
            "target": 34962
        },
        {
            "buffer": 0,
            "byteOffset": 38400,
            "byteLength": 4800,
            "target": 34963
        },
        {
            "buffer": 0,
            "byteOffset": 43200,
            "byteLength": 36,
            "target": 34962
        },
        {
            "buffer": 0,
            "byteOffset": 43236,
            "byteLength": 36,
            "target": 34962
        },
        {
            "buffer": 0,
            "byteOffset": 43272,
            "byteLength": 24,
            "target": 34962
        },
        {
            "buffer": 0,
            "byteOffset": 43296,
            "byteLength": 8,
            "target": 34963
        },
        {
            "buffer": 0,
            "byteOffset": 43304,
            "byteLength": 711900,
            "target": 34962
        },
        {
            "buffer": 0,
            "byteOffset": 755204,
            "byteLength": 711900,
            "target": 34962
        },
        {
            "buffer": 0,
            "byteOffset": 1467104,
            "byteLength": 474600,
            "target": 34962
        },
        {
            "buffer": 0,
            "byteOffset": 1941704,
            "byteLength": 237300,
            "target": 34963
        }
    ],
    "materials": [
        {
            "name": "DefaultMaterial",
            "pbrMetallicRoughness": {
                "baseColorFactor": [
                    0.6000000238418579,
                    0.6000000238418579,
                    0.6000000238418579,
                    1.0
                ],
                "metallicFactor": 0.0
            },
            "extensions": {
                "KHR_materials_ior": {
                    "ior": 1.0
                }
            }
        },
        {
            "name": "zarowka",
            "pbrMetallicRoughness": {
                "baseColorFactor": [
                    0.6000000238418579,
                    0.6000000238418579,
                    0.6000000238418579,
                    1.0
                ],
                "metallicFactor": 0.0
            },
            "extensions": {
                "KHR_materials_ior": {
                    "ior": 1.0
                }
            }
        },
        {
            "name": "stolik",
            "pbrMetallicRoughness": {
                "baseColorFactor": [
                    0.6000000238418579,
                    0.6000000238418579,
                    0.6000000238418579,
                    1.0
                ],
                "metallicFactor": 0.0
            },
            "extensions": {
                "KHR_materials_ior": {
                    "ior": 1.0
                }
            }
        }
    ],
    "meshes": [
        {
            "name": "Sphere",
            "primitives": [
                {
                    "extensions": {
                        "FB_ngon_encoding": {}
                    },
                    "mode": 4,
                    "material": 1,
                    "indices": 3,
                    "attributes": {
                        "POSITION": 0,
                        "NORMAL": 1,
                        "TEXCOORD_0": 2
                    }
                }
            ]
        },
        {
            "name": "stolik_lampa_ksiazka.001",
            "primitives": [
                {
                    "mode": 1,
                    "material": 2,
                    "indices": 7,
                    "attributes": {
                        "POSITION": 4,
                        "NORMAL": 5,
                        "TEXCOORD_0": 6
                    }
                },
                {
                    "mode": 4,
                    "material": 2,
                    "indices": 11,
                    "attributes": {
                        "POSITION": 8,
                        "NORMAL": 9,
                        "TEXCOORD_0": 10
                    }
                }
            ]
        }
    ],
    "nodes": [
        {
            "name": "OCM_stolik_lampa_ksiazka_edit22w.obj",
            "children": [
                1,
                2
            ]
        },
        {
            "name": "Sphere",
            "mesh": 0
        },
        {
            "name": "stolik_lampa_ksiazka.001",
            "mesh": 1
        }
    ],
    "scenes": [
        {
            "nodes": [
                0
            ]
        }
    ],
    "scene": 0
}