{"asset":{"generator":"glTF-Transform v4.0.2","version":"2.0"},"accessors":[{"name":"Sphere-Mesh_0_positions","type":"VEC3","componentType":5126,"count":237,"max":[0.1696850061416626,1.2869479656219482,-0.20089900493621826],"min":[0.10994300246238708,1.2227180004119873,-0.26061901450157166],"bufferView":0,"byteOffset":0},{"name":"Sphere-Mesh_0_normals","type":"VEC3","componentType":5126,"count":237,"bufferView":0,"byteOffset":12},{"name":"Sphere-Mesh_0_texcoords","type":"VEC2","componentType":5126,"count":237,"bufferView":0,"byteOffset":24},{"name":"Sphere-Mesh_0_indices","type":"SCALAR","componentType":5123,"count":1200,"bufferView":1,"byteOffset":0},{"name":"stolik_lampa_ksiazka.001-Mesh_0_indices","type":"SCALAR","componentType":5123,"count":59100,"bufferView":1,"byteOffset":2400},{"name":"stolik_lampa_ksiazka.001-Mesh_0_positions","type":"VEC3","componentType":5126,"count":13727,"max":[0.38184499740600586,1.3555560111999512,0.5535500049591064],"min":[-0.3204120099544525,-0.01080199982970953,-0.5694310069084167],"bufferView":2,"byteOffset":0},{"name":"stolik_lampa_ksiazka.001-Mesh_0_normals","type":"VEC3","componentType":5126,"count":13727,"bufferView":2,"byteOffset":12},{"name":"stolik_lampa_ksiazka.001-Mesh_0_texcoords","type":"VEC2","componentType":5126,"count":13727,"bufferView":2,"byteOffset":24}],"bufferViews":[{"buffer":0,"byteOffset":0,"byteLength":7584,"byteStride":32,"target":34962},{"buffer":0,"byteOffset":7584,"byteLength":120600,"target":34963},{"buffer":0,"byteOffset":128184,"byteLength":439264,"byteStride":32,"target":34962}],"samplers":[{"wrapS":10497,"wrapT":10497}],"textures":[{"source":0,"sampler":0}],"images":[{"name":"OCM_Biblioteka_lampka_ksiazka_4K_edit06w","mimeType":"image/vnd.ms-dds","uri":"baseColor.vnd.ms-dds"}],"buffers":[{"name":"Stool","uri":"Stool.bin","byteLength":567448}],"materials":[{"name":"zarowka","pbrMetallicRoughness":{"baseColorFactor":[0.8,0.8,0.8,1],"roughnessFactor":0,"metallicFactor":0},"emissiveFactor":[337,163.61174,0]},{"name":"stolik","pbrMetallicRoughness":{"roughnessFactor":0.75,"metallicFactor":0,"baseColorTexture":{"index":0}}}],"meshes":[{"name":"Sphere-Mesh","primitives":[{"attributes":{"POSITION":0,"NORMAL":1,"TEXCOORD_0":2},"mode":4,"material":0,"indices":3}]},{"name":"stolik_lampa_ksiazka.001-Mesh","primitives":[{"attributes":{"POSITION":5,"NORMAL":6,"TEXCOORD_0":7},"mode":4,"material":1,"indices":4}]}],"nodes":[{"name":"Sphere","mesh":0},{"name":"stolik_lampa_ksiazka.001","mesh":1}],"scenes":[{"nodes":[0,1]}],"scene":0}